<?xml version="1.0" standalone="no"?>
<!DOCTYPE svg PUBLIC "-//W3C//DTD SVG 1.1//EN" "http://www.w3.org/Graphics/SVG/1.1/DTD/svg11.dtd">
<svg xmlns="http://www.w3.org/2000/svg"><metadata>This SVG WebFont was generated by YouWorkForThem.
Copyright (c) 2010 by Rodrigo Saiani. All rights reserved.</metadata><defs><font horiz-adv-x="1126" id="ywftsvg"><font-face ascent="1536" bbox="-109 -424 1432 1894" cap-height="1434" descent="-512" font-family="" font-stretch="normal" font-weight="300" panose-1="0 0 4 0 0 0 0 0 0 0" underline-position="0" underline-thickness="0" unicode-range="U+0020-FB02" units-per-em="2048" x-height="1032"/><missing-glyph d="M885 90v1256q0 10 -11 10h-579q-10 0 -10 -10v-1256q0 -10 10 -10h579q11 0 11 10zM242 1436h686q43 0 43 -41v-1354q0 -41 -43 -41h-686q-41 0 -41 41v1354q0 41 41 41z" horiz-adv-x="1171"/><glyph d="M885 90v1256q0 10 -11 10h-579q-10 0 -10 -10v-1256q0 -10 10 -10h579q11 0 11 10zM242 1436h686q43 0 43 -41v-1354q0 -41 -43 -41h-686q-41 0 -41 41v1354q0 41 41 41z" glyph-name=".notdef" horiz-adv-x="1171"/><glyph glyph-name="glyph1" horiz-adv-x="0"/><glyph glyph-name="glyph2" horiz-adv-x="682"/><glyph glyph-name="space" horiz-adv-x="423" unicode=" "/><glyph d="M174 301h74q16 0 16 -14v-271q0 -16 -16 -16h-74q-16 0 -16 16v271q0 14 16 14zM172 1434h78q14 0 14 -17v-907q0 -14 -14 -14h-78q-14 0 -14 14v907q0 17 14 17z" glyph-name="exclam" horiz-adv-x="421" unicode="!"/><glyph d="M369 1434h73q16 0 17 -17v-207l-10 -178q0 -14 -17 -14h-53q-16 0 -17 14l-10 178v207q1 17 17 17zM123 1434h74q16 0 16 -17v-207l-12 -178q0 -14 -15 -14h-53q-16 0 -16 14l-11 178v207q1 17 17 17z" glyph-name="quotedbl" horiz-adv-x="565" unicode="&quot;"/><glyph d="M772 549l39 379h-254l-39 -379h254zM412 457q-260 0 -260 2v76q0 14 14 14h256l37 379h-269q-14 0 -14 14v62q0 14 14 14h279l41 403q2 16 18 17h68q12 0 12 -17l-41 -403h252l43 403q1 17 19 17h65q12 0 12 -17l-40 -403h258q16 0 16 -14v-62q0 -14 -16 -14h-269 l-37 -379h279q16 0 16 -14v-74q0 -6 -6 -5t-10 1h-289l-45 -443q0 -14 -18 -14h-64q-14 0 -14 16l45 441h-256l-43 -443q0 -14 -21 -14h-61q-16 0 -14 16z" glyph-name="numbersign" horiz-adv-x="1341" unicode="#"/><glyph d="M489 1577h66q16 0 16 -16v-197q0 -10 11 -10q135 -4 206 -21q31 -6 29 -24l-2 -58q-2 -14 -18 -14q-6 0 -94 11t-208 11q-120 1 -172 -41q-53 -42 -53 -125t10 -105t16 -34t26 -29t28 -25q21 -19 159 -87t199 -105q132 -80 158 -178q14 -51 15 -129q0 -305 -322 -321 q-12 -2 -12 -17v-200q0 -14 -15 -15h-67q-14 0 -14 15v196q0 12 -13 13q-100 2 -227 30q-31 8 -31 31l6 57q0 14 15 15q4 1 89 -15t219 -16t198 52q63 52 63 156t-22 138q-22 35 -39 53q-15 18 -57 44t-77 43q-175 85 -250 130q-126 76 -151 165q-14 50 -14 126 q0 135 72 202q73 67 231 69q12 2 12 12v197q0 16 14 16z" glyph-name="dollar" horiz-adv-x="1007" unicode="$"/><glyph d="M992 72q68 0 94 41t26 171t-26 169t-94 39t-96 -40t-28 -168t28 -170t96 -42zM989 573q115 0 161 -62t46 -224t-48 -230q-48 -67 -159 -67t-159 68t-48 229q0 162 46 224t161 62zM378 946q68 0 94 41t26 171t-26 169t-94 39t-96 -40t-28 -167t28 -170t96 -43zM1038 1434 h52q20 0 10 -19l-762 -1401q-8 -14 -25 -14h-47q-23 0 -10 18l760 1399q8 17 22 17zM375 1448q115 0 161 -62t46 -224t-48 -230t-159 -68t-159 68t-48 230t46 224t161 62z" glyph-name="percent" horiz-adv-x="1363" unicode="%"/><glyph d="M797 272v441q0 14 -15 14h-274q-242 0 -242 -317q0 -168 66 -248t200 -80t200 53t65 137zM1161 86v-35q0 -33 -42 -50t-99 -17q-133 0 -193 125q-6 10 -14 0q-66 -125 -277 -125q-210 0 -296 104t-86 320q0 145 50 245t142 129q14 4 14 10t-12 11q-63 37 -99 107t-36 198 q0 174 93 257t284 83q137 0 196 -11q60 -11 68 -21t6 -27l-4 -39q0 -14 -14 -15l-91 7q-91 7 -151 8q-131 0 -202 -56q-70 -56 -70 -200q0 -143 56 -210t179 -67h219q14 0 15 12v191q0 16 14 16h37q12 0 22 -18l15 -27q14 -23 14 -80v-77q0 -16 21 -17h192q12 0 12 -14v-64 q0 -12 -12 -12h-194q-14 0 -15 -14v-453q0 -70 33 -123t81 -53t86 9t42 9q16 0 16 -16z" glyph-name="ampersand" horiz-adv-x="1212" unicode="&amp;"/><glyph d="M158 1434h67q16 0 17 -17v-172q0 -59 -18 -104t-68 -123q-10 -16 -31 -12l-27 2q-20 4 -14 16q57 115 57 225v168q1 17 17 17z" glyph-name="quotesingle" horiz-adv-x="370" unicode="'"/><glyph d="M121 700q0 348 74 558t251 292q20 8 29 -8l21 -33q8 -14 -9 -24q-143 -83 -204 -273t-61 -512t60 -511q62 -189 205 -273q17 -11 9 -27l-19 -30q-10 -16 -31 -9q-178 82 -251 292q-74 210 -74 558z" glyph-name="parenleft" horiz-adv-x="536" unicode="("/><glyph d="M422 700q0 -348 -74 -558t-254 -292q-18 -8 -28 9l-19 30q-10 16 8 27q141 84 204 273q62 189 63 511q0 322 -63 511q-62 189 -204 274q-18 10 -8 24l19 33q10 16 28 8q180 -82 254 -292t74 -558z" glyph-name="parenright" horiz-adv-x="548" unicode=")"/><glyph d="M422 1434h57q18 0 17 -17v-250q-2 -18 18 -12l231 78q18 6 23 -10l18 -54q4 -16 -12 -20l-233 -74q-18 -4 -6 -20l145 -197q10 -14 -4 -22l-45 -33q-14 -10 -23 2l-145 205q-12 16 -23 0l-145 -205q-8 -12 -23 -4l-49 35q-12 10 -2 22l146 195q10 16 -9 22l-225 70 q-16 4 -10 22l16 54q6 14 23 8l227 -74q10 -2 14 1t3 11v250q0 17 16 17z" glyph-name="asterisk" horiz-adv-x="907" unicode="*"/><glyph d="M496 907h63q14 0 14 -14v-291q0 -14 15 -14h284q16 0 17 -15v-61q0 -14 -17 -14h-284q-14 0 -15 -15v-299q0 -14 -14 -14h-63q-14 0 -15 14v297q0 16 -14 17h-285q-14 0 -14 14v61q0 14 14 15h285q14 0 14 14v291q1 14 15 14z" glyph-name="plus" horiz-adv-x="1054" unicode="+"/><glyph d="M162 240h67q16 0 17 -19v-172q0 -57 -18 -102t-68 -125q-10 -14 -31 -12l-25 4q-20 2 -16 16q57 115 57 225v166q1 19 17 19z" glyph-name="comma" horiz-adv-x="389" unicode=","/><glyph d="M137 604h449q16 0 16 -14v-60q0 -16 -16 -16h-449q-14 0 -14 14v62q0 14 14 14z" glyph-name="hyphen" horiz-adv-x="724" unicode="-"/><glyph d="M168 307h70q16 0 16 -16v-275q0 -16 -16 -16h-70q-16 0 -16 16v275q0 16 16 16z" glyph-name="period" horiz-adv-x="403" unicode="."/><glyph d="M461 1552h61q14 0 10 -16l-409 -1667q-4 -14 -21 -14h-61q-16 0 -12 14l411 1667q5 16 21 16z" glyph-name="slash" horiz-adv-x="542" unicode="/"/><glyph d="M564 1350q-120 0 -179 -50t-85 -177q-26 -128 -26 -396t26 -404q26 -135 85 -187t179 -52t178 51t84 187t26 405q0 268 -26 396q-26 127 -84 177t-178 50zM565 1450q187 0 274 -84q86 -84 111 -335q12 -120 12 -303q1 -531 -123 -656q-90 -88 -276 -88t-273 87 q-124 124 -124 658q0 347 50 503t188 199q65 19 161 19z" glyph-name="zero" horiz-adv-x="1140" unicode="0"/><glyph d="M113 1346v45q0 29 32 39q61 18 153 18q186 0 187 -188v-1244q0 -16 -16 -16h-76q-16 0 -16 16v1203q-1 75 -21 101t-72 26t-101 -8q-48 -8 -59 -6q-11 0 -11 14z" glyph-name="one" horiz-adv-x="708" unicode="1"/><glyph d="M464 1450q202 0 290 -79t88 -244t-112 -290q-59 -68 -158 -155q-99 -88 -144 -135q-134 -140 -169 -265q-22 -79 -21 -176q0 -6 4 -6h581q18 0 19 -16v-68q0 -16 -19 -16h-671q-25 0 -25 25v55q0 227 97 377q50 76 96 125t124 116q6 8 52 50q182 163 217 261 q16 48 16 107q0 125 -66 179q-67 55 -200 55t-214 -14t-91 -15q-10 0 -11 14l-4 58q-2 20 17 26q102 31 304 31z" glyph-name="two" horiz-adv-x="972" unicode="2"/><glyph d="M410 1450q192 0 280 -87t88 -265q0 -258 -176 -320q-16 -6 0 -8q115 -20 168 -116t53 -232q0 -213 -98 -326q-99 -112 -309 -112t-291 30q-20 8 -16 31l4 53q0 12 9 12t82 -12t181 -12q178 0 252 78t74 248t-66 236t-242 65h-153q-16 0 -17 16v66q0 16 17 16h147 q152 0 210 67q59 66 59 206t-65 202t-226 64q-105 0 -173 -14t-73 -13q-14 0 -14 16l-6 47q0 23 24 31q85 33 277 33z" glyph-name="three" horiz-adv-x="958" unicode="3"/><glyph d="M651 385v911q-18 0 -28 -20l-369 -623q-43 -76 -43 -155v-113q0 -12 12 -12h416q12 0 12 12zM674 1434h43q43 0 43 -43v-1006q0 -12 12 -14h174q18 0 19 -17v-59q0 -18 -19 -19h-174q-12 0 -12 -12v-248q0 -16 -19 -16h-73q-16 0 -17 16v248q0 12 -12 12h-465 q-70 0 -70 72v154q0 61 14 100q13 39 50 98l414 684q18 30 38 40t54 10z" glyph-name="four" horiz-adv-x="1030" unicode="4"/><glyph d="M258 1434h543q18 0 18 -17v-67q0 -16 -18 -17h-492q-31 0 -30 -30v-451q129 23 231 22q186 0 270 -95t84 -333t-94 -350t-317 -112q-158 0 -269 30q-18 4 -16 25l4 57q2 14 12 14t85 -12q75 -14 175 -14q174 0 241 77t67 282t-69 272q-36 35 -81 47t-114 12t-131 -8 t-101 -15t-46 -8t-32 17q-8 6 -8 20v566q0 88 88 88z" glyph-name="five" horiz-adv-x="1024" unicode="5"/><glyph d="M244 713v-371q0 -74 9 -119t36 -79q48 -60 207 -60q90 0 143 16t83 62t38 109q8 61 8 159t-10 150t-39 94q-54 76 -208 77t-255 -18q-12 -2 -12 -20zM135 342v655q0 235 83 344t319 109q150 0 268 -27q27 -6 24 -30l-4 -52q0 -23 -22 -18q-184 23 -256 23 q-174 0 -239 -71t-64 -269v-158q0 -12 8 -12t78 8t176 8q211 0 293 -99t82 -302q0 -263 -80 -365t-297 -102t-293 82t-76 276z" glyph-name="six" horiz-adv-x="1026" unicode="6"/><glyph d="M78 1348v69q0 16 18 17h545q104 0 104 -101v-354q1 -113 -23 -192t-71 -158l-366 -619q-10 -23 -35 -12l-49 27q-23 10 -11 32l363 617q47 82 65 146t19 165v307q0 39 -37 39h-504q-18 1 -18 17z" glyph-name="seven" horiz-adv-x="888" unicode="7"/><glyph d="M246 295q0 -105 59 -157t229 -52t230 51q59 51 59 158q0 66 -33 121q-34 55 -106 116l-145 138q-10 10 -19 0l-139 -140q-67 -66 -101 -118t-34 -117zM536 1348q-152 0 -209 -45q-56 -45 -57 -142q0 -93 54 -155q20 -22 57 -60l145 -143q11 -10 21 0l149 147q34 40 52 60 t35 62t18 89q-1 95 -57 141t-208 46zM162 1174q0 132 85 204t289 72t288 -72t85 -207q1 -88 -31 -146t-96 -124l-157 -153q-8 -8 0 -17l147 -145q80 -74 121 -142t41 -153q0 -152 -87 -230t-312 -77q-321 0 -380 179q-17 52 -17 131q0 80 38 146q39 66 119 146l145 147 q8 9 -2 17l-145 145q-67 63 -99 123t-32 156z" glyph-name="eight" horiz-adv-x="1067" unicode="8"/><glyph d="M752 733v365q0 145 -52 199q-52 55 -214 55t-214 -69t-53 -277q0 -90 9 -146q20 -125 122 -160q55 -18 119 -18t147 9t115 18q21 4 21 24zM752 428v172q0 12 -8 12t-101 -15q-92 -15 -185 -15q-92 0 -164 28t-113 85q-40 58 -55 131t-15 191q0 119 16 197q35 171 179 213 q75 23 192 23q223 0 298 -93q38 -47 51 -105t13 -148v-676q0 -116 -16 -192q-37 -175 -180 -225q-80 -27 -228 -27t-248 20q-31 8 -26 41l4 31q0 27 24 24q154 -16 259 -16q175 0 239 70t64 274z" glyph-name="nine" horiz-adv-x="1050" unicode="9"/><glyph d="M178 289h74q16 0 16 -17v-256q0 -16 -16 -16h-74q-16 0 -16 16v256q0 17 16 17zM178 1024h74q16 0 16 -16v-258q0 -14 -16 -15h-74q-16 0 -16 15v258q0 16 16 16z" glyph-name="colon" horiz-adv-x="428" unicode=":"/><glyph d="M162 240h67q16 0 17 -19v-172q0 -57 -18 -102t-68 -125q-10 -14 -31 -12l-25 4q-20 2 -16 14q57 117 57 227v166q1 19 17 19zM160 1024h65q16 0 17 -16v-201q0 -14 -17 -14h-65q-16 0 -17 14v201q1 16 17 16z" glyph-name="semicolon" horiz-adv-x="389" unicode=";"/><glyph d="M125 555l498 489q14 14 26 3l39 -37q14 -14 2 -25l-454 -448q-14 -14 0 -29l454 -449q12 -10 -2 -24l-37 -35q-12 -12 -28 0l-498 489q-35 33 0 66z" glyph-name="less" horiz-adv-x="808" unicode="&lt;"/><glyph d="M154 500h649q16 0 16 -15v-61q0 -14 -16 -14h-649q-14 0 -15 12v63q1 15 15 15zM154 782h649q16 0 16 -14v-59q0 -16 -16 -17h-649q-14 0 -15 15v61q1 14 15 14z" glyph-name="equal" horiz-adv-x="956" unicode="="/><glyph d="M115 1010l39 37q12 12 26 -3l498 -489q35 -33 0 -66l-500 -489q-12 -12 -26 0l-37 35q-14 14 -2 24l454 449q14 14 0 29l-454 448q-12 11 2 25z" glyph-name="greater" horiz-adv-x="808" unicode=">"/><glyph d="M416 299h80q16 0 16 -16v-267q0 -16 -16 -16h-80q-16 0 -17 16v267q1 16 17 16zM484 1448q204 0 284 -64t80 -206q0 -143 -89 -210q-38 -28 -82 -59t-82 -59t-64 -80q-26 -53 -25 -125v-141q0 -18 -17 -19h-67q-16 0 -16 19v158q0 158 81 230t166 125q86 52 85 152 q-1 99 -60 139t-201 40t-220 -14q-77 -14 -87 -13q-10 0 -10 14l-6 58q-2 20 16 26q110 29 314 29z" glyph-name="question" horiz-adv-x="956" unicode="?"/><glyph d="M827 436v170q0 88 -29 116q-30 28 -115 28t-117 -46t-32 -190q0 -143 32 -196q32 -52 112 -52q149 0 149 170zM610 -135q-487 0 -487 633q0 256 59 402q60 146 182 206t300 61t276 -27q100 -28 172 -92q141 -126 140 -455t-100 -399q-48 -34 -127 -34t-118 26t-55 84h-10 q-20 -38 -66 -66t-108 -28q-119 0 -171 78q-53 78 -53 259t52 254t183 73q132 0 184 -46t52 -163v-262q0 -72 25 -98q25 -25 79 -25t81 22q53 44 53 327q0 282 -116 389q-60 54 -141 74t-204 21t-207 -25q-183 -55 -238 -266q-30 -113 -30 -258q0 -274 69 -394t154 -152 q145 -53 310 -24q52 9 74 17t30 8t8 -16l4 -22q2 -29 -16 -39q-70 -43 -240 -43z" glyph-name="at" horiz-adv-x="1374" unicode="@"/><glyph d="M566 1327q-6 0 -17 -10l-219 -250q-20 -23 -21 -53v-455q0 -12 13 -12h483q12 0 12 12v455q0 30 -20 53l-219 250q-6 10 -12 10zM564 1444q36 0 69 -35l248 -281q45 -47 45 -112v-1000q0 -16 -19 -16h-73q-16 0 -17 16v418q0 12 -12 12h-483q-12 0 -13 -12v-418 q0 -16 -18 -16h-74q-16 0 -16 16v1000q0 65 45 112l250 281q32 35 68 35z" glyph-name="A" unicode="A"/><glyph d="M319 100h256q162 0 230 72q67 72 67 236t-61 227t-209 63h-283q-12 0 -12 -10v-577q0 -11 12 -11zM319 786h240q143 0 202 70q58 70 58 222t-62 212q-63 60 -203 60t-194 -50t-53 -178v-323q0 -13 12 -13zM201 57v1057q0 178 73 257q74 79 275 79t291 -83t90 -259 q0 -287 -164 -344v-4q119 -23 169 -113t50 -241q0 -206 -90 -306t-297 -100h-338q-27 0 -43 16t-16 41z" glyph-name="B" horiz-adv-x="1173" unicode="B"/><glyph d="M172 720q0 181 12 302q25 256 124 342t284 86q184 0 266 -18q27 -4 25 -31l-4 -53q0 -14 -15 -15q-2 0 -146 13t-213 -4t-112 -54q-43 -36 -65 -108q-44 -145 -43 -442q0 -297 22 -399q22 -103 45 -145t64 -68q66 -42 195 -42q128 0 194 9t76 9t12 -16l4 -39 q2 -29 -27 -39q-78 -24 -226 -24t-220 22q-74 22 -125 68q-51 47 -78 137t-38 209t-11 300z" glyph-name="C" horiz-adv-x="991" unicode="C"/><glyph d="M319 100h228q78 0 129 14q118 31 164 158q51 143 51 446t-49 437q-49 135 -166 165q-51 13 -129 13h-228q-10 0 -10 -10v-1212q0 -11 10 -11zM258 1434h295q98 0 165 -16q152 -37 216 -194q64 -156 70 -507q0 -511 -160 -637q-57 -44 -125 -62t-166 -18h-297 q-25 0 -40 16t-15 41v1321q0 24 16 40t41 16z" glyph-name="D" horiz-adv-x="1173" unicode="D"/><glyph d="M537 1434h335q16 0 17 -17v-67q0 -16 -17 -17h-309q-164 0 -209 -42t-45 -195v-293q0 -12 10 -12h498q16 0 17 -17v-65q0 -18 -17 -19h-498q-10 0 -10 -10v-342q0 -154 45 -196t209 -42h309q16 0 17 -16v-68q0 -16 -17 -16h-319q-207 0 -280 66t-72 245v811q0 178 70 245 q71 67 266 67z" glyph-name="E" horiz-adv-x="1032" unicode="E"/><glyph d="M532 1434h289q18 0 19 -17v-67q0 -16 -19 -17h-270q-156 0 -199 -42t-43 -195v-338q0 -10 10 -10h463q16 0 17 -17v-67q0 -16 -17 -17h-463q-10 0 -10 -10v-623q0 -14 -14 -14h-80q-14 0 -14 14v1108q0 180 66 246t265 66z" glyph-name="F" horiz-adv-x="911" unicode="F"/><glyph d="M983 743v-395q0 -176 -90 -269t-303 -93q-123 0 -202 37q-157 73 -197 349q-19 136 -19 388t42 406t134 218t280 64t275 -18q27 -4 25 -33l-6 -49q0 -14 -12 -14t-88 6q-77 8 -177 8t-153 -16q-121 -35 -164 -174t-43 -419q1 -280 33 -416q32 -137 94 -185t200 -48 t200 69t62 226v303q0 10 -8 10h-309q-16 0 -16 17v65q0 16 16 17h373q53 -1 53 -54z" glyph-name="G" unicode="G"/><glyph d="M907 1434h78q14 0 14 -17v-1403q0 -14 -12 -14h-80q-14 0 -14 14v641q0 12 -12 13h-559q-12 0 -13 -13v-641q0 -14 -14 -14h-80q-14 0 -14 14v1403q0 16 14 17h80q14 0 14 -17v-631q0 -12 13 -12h559q12 0 12 12v631q0 17 14 17z" glyph-name="H" horiz-adv-x="1200" unicode="H"/><glyph d="M217 1434h76q16 0 16 -17v-1401q0 -16 -16 -16h-76q-16 0 -16 16v1401q0 17 16 17z" glyph-name="I" horiz-adv-x="509" unicode="I"/><glyph d="M532 1434h74q16 0 17 -17v-1052q-1 -215 -61 -297t-223 -82t-228 22q-29 8 -27 37l4 47q2 14 16 14q2 0 65 -9t145 -9t124 20q41 20 60 78q18 57 18 181v1050q0 17 16 17z" glyph-name="J" horiz-adv-x="823" unicode="J"/><glyph d="M860 1434h92q18 0 9 -17l-400 -651v-18l412 -719q16 -29 -12 -29h-78q-23 0 -33 16l-375 664q-12 18 -31 18h-125q-12 0 -12 -12v-670q0 -16 -16 -16h-74q-16 0 -16 16v1401q0 16 16 17h74q16 0 16 -17v-604q0 -12 12 -12h123q20 0 31 18l361 600q10 15 26 15z" glyph-name="K" horiz-adv-x="1052" unicode="K"/><glyph d="M217 1434h74q18 0 18 -17v-1095q0 -142 41 -182t189 -40h290q16 0 17 -16v-68q0 -16 -17 -16h-301q-192 0 -260 63t-67 230v1124q0 17 16 17z" glyph-name="L" horiz-adv-x="935" unicode="L"/><glyph d="M1077 1434h17q31 0 30 -33v-1387q0 -14 -14 -14h-80q-14 0 -14 14v1151q0 6 -2 7t-4 -5l-303 -495q-14 -27 -44 -27t-45 27l-301 495q-8 12 -8 -2v-1151q0 -14 -14 -14h-80q-14 0 -14 14v1387q0 33 30 33h19q20 0 33 -19l368 -612q5 -10 11 -10t12 10l368 612 q12 19 35 19z" glyph-name="M" horiz-adv-x="1325" unicode="M"/><glyph d="M899 1434h80q14 0 14 -15v-1386q0 -33 -32 -33h-29q-23 0 -31 18l-596 1147q-2 4 -6 4t-4 -6v-1149q0 -14 -14 -14h-80q-14 0 -15 14v1387q0 33 33 33h35q20 0 33 -21l590 -1137q2 -4 6 -4t4 7v1140q0 15 12 15z" glyph-name="N" horiz-adv-x="1181" unicode="N"/><glyph d="M594 1348q-80 0 -130 -18q-112 -39 -146 -176q-33 -137 -33 -436t33 -438t146 -176q52 -16 131 -16q151 0 218 72q90 95 90 559q0 302 -33 438q-33 135 -145 173q-51 18 -131 18zM595 1450q187 0 270 -69q48 -38 77 -90q55 -99 69 -325q5 -99 5 -260t-9 -274 q-21 -260 -114 -355t-299 -94t-299 96t-114 353q-9 113 -9 342q0 387 70 509t195 152q67 15 158 15z" glyph-name="O" horiz-adv-x="1187" unicode="O"/><glyph d="M317 692h234q170 0 231 78q62 78 62 252t-60 245t-213 71t-207 -50q-54 -49 -55 -186v-402q0 -8 8 -8zM201 16v1086q0 90 15 148t56 104q74 82 290 83t304 -97t88 -316q0 -217 -89 -325t-310 -107h-238q-8 0 -8 -8v-568q0 -16 -18 -16h-74q-16 0 -16 16z" glyph-name="P" horiz-adv-x="1028" unicode="P"/><glyph d="M378 1276q-93 -95 -93 -558t93 -556q70 -72 217 -72q79 0 129 16q109 35 144 174q35 140 35 370t-8 334q-17 222 -85 293t-215 71t-217 -72zM891 -233v-37q0 -25 -19 -31q-33 -14 -86 -14q-135 1 -189 71t-54 207q0 25 -25 31q-163 11 -249 116q-97 121 -97 611 q0 283 22 400q22 118 53 170q66 114 190 144q67 15 159 15q189 0 275 -72q87 -72 117 -225q30 -154 30 -378t-9 -335q-20 -247 -97 -342t-244 -102q-18 -6 -19 -27q0 -111 33 -151t119 -39l73 6q17 0 17 -18z" glyph-name="Q" horiz-adv-x="1189" unicode="Q"/><glyph d="M324 723h223q160 0 223 80q64 79 64 241t-64 234t-210 72t-198 -54t-53 -204v-355q1 -14 15 -14zM201 14v1088q0 92 14 152t52 106q70 85 280 87q211 1 304 -92t93 -317q0 -166 -56 -256t-175 -127q-18 -6 -11 -26l308 -613q6 -16 -11 -16h-77q-18 0 -27 14l-299 590 q-12 18 -39 19h-233q-14 0 -15 -15v-594q0 -14 -16 -14h-78q-14 0 -14 14z" glyph-name="R" horiz-adv-x="1099" unicode="R"/><glyph d="M772 344q0 131 -59 196t-185 131t-164 90q-124 75 -156 135q-48 91 -48 208q0 188 86 267t280 79t293 -18q25 -4 25 -29l-4 -64q-2 -14 -17 -14q-4 0 -75 10t-211 10q-140 1 -202 -55q-63 -56 -63 -175q0 -118 38 -168q18 -22 28 -33t96 -63t135 -75q99 -57 151 -93 t94 -84t56 -104t15 -141q0 -194 -90 -282q-89 -88 -295 -88t-293 24q-18 4 -24 12q-5 9 -3 25l4 49q0 14 17 15q4 -1 69 -11t220 -10q154 0 218 62t64 194z" glyph-name="S" horiz-adv-x="1011" unicode="S"/><glyph d="M66 1436h790q16 0 16 -19v-65q0 -16 -16 -17h-330q-12 0 -12 -12v-1307q0 -16 -16 -16h-74q-16 0 -16 16v1307q0 12 -13 12h-329q-18 0 -19 17v65q1 19 19 19z" glyph-name="T" horiz-adv-x="921" unicode="T"/><glyph d="M901 1434h78q14 0 14 -15v-991q0 -131 -16 -211q-33 -166 -181 -210q-75 -21 -197 -21t-198 22q-147 41 -182 210q-16 81 -16 210v991q0 14 14 15h78q16 0 16 -15v-999q0 -141 26 -211q26 -71 85 -97t177 -26t176 27t85 97t27 210v999q0 15 14 15z" glyph-name="U" horiz-adv-x="1196" unicode="U"/><glyph d="M868 1434h82q14 0 15 -15v-985q0 -70 -35 -106l-275 -297q-35 -37 -71 -37t-74 37l-274 297q-35 39 -35 106v985q0 14 14 15h82q14 0 14 -15v-977q0 -37 19 -57l233 -256q9 -12 19 -12t20 12l234 256q20 25 20 57v977q0 15 12 15z" glyph-name="V" horiz-adv-x="1165" unicode="V"/><glyph d="M1280 1434h82q12 0 12 -15v-985q0 -80 -43 -131l-219 -291q-24 -32 -58 -30t-61 34l-198 271q-4 8 -13 0l-196 -264q-27 -37 -64 -37t-63 34l-215 283q-43 51 -43 131v985q0 14 12 15h82q14 0 14 -15v-1001q0 -25 21 -53l176 -242q14 -18 29 0l178 246q20 25 20 45v1005 q0 14 15 15h79q14 0 15 -15v-1005q0 -20 20 -47l178 -244q14 -18 31 0l174 242q20 31 21 53v1001q0 15 14 15z" glyph-name="W" horiz-adv-x="1568" unicode="W"/><glyph d="M852 1434h80q14 0 14 -15v-264q0 -70 -49 -127l-225 -274q-14 -16 0 -31l227 -264q47 -53 47 -129v-316q0 -14 -14 -14h-80q-12 0 -12 14v312q0 39 -27 67l-215 262q-18 18 -37 0l-227 -262q-27 -29 -27 -67v-312q0 -14 -12 -14h-80q-14 0 -14 14v316q0 80 45 129 l239 264q14 16 0 31l-239 272q-45 53 -45 129v264q0 14 14 15h80q12 0 12 -15v-260q0 -37 27 -67l227 -271q20 -25 39 0l213 273q25 33 25 69v256q0 15 14 15z" glyph-name="X" horiz-adv-x="1146" unicode="X"/><glyph d="M840 1434h80q14 0 14 -15v-393q0 -74 -47 -129l-238 -289q-27 -35 -26 -71v-523q0 -14 -15 -14h-78q-14 0 -14 14v523q0 41 -29 71l-254 289q-45 49 -45 129v393q0 14 15 15h80q14 0 14 -15v-391q0 -39 25 -65l229 -273q20 -23 37 2l215 271q25 35 24 69v387q1 15 13 15z " glyph-name="Y" horiz-adv-x="1124" unicode="Y"/><glyph d="M154 1434h663q35 0 35 -33v-47q0 -16 -8 -29l-596 -1216q-6 -8 4 -9h582q18 0 18 -16v-68q0 -16 -18 -16h-668q-35 0 -35 33v55q0 18 10 35l588 1204q6 6 -4 6h-571q-16 0 -17 19v65q1 17 17 17z" glyph-name="Z" horiz-adv-x="983" unicode="Z"/><glyph d="M162 29v1337q0 109 39 153t125 44t145 -11q29 -4 29 -28v-31q0 -14 -19 -14h-127q-60 0 -80 -28t-20 -110v-1286q0 -81 20 -109t80 -28h127q18 0 19 -14v-31q0 -25 -25 -29q-63 -12 -149 -12t-125 46t-39 151z" glyph-name="bracketleft" horiz-adv-x="622" unicode="["/><glyph d="M127 1552h68q14 0 18 -16l416 -1667q4 -14 -11 -14h-69q-12 0 -17 12l-417 1669q-4 16 12 16z" glyph-name="backslash" horiz-adv-x="757" unicode="\"/><glyph d="M106 1493v31q0 25 27 28q211 35 273 -33q39 -44 38 -153v-1337q0 -106 -38 -152q-38 -45 -126 -45t-149 12q-25 4 -25 29v31q0 14 19 14h127q59 0 80 28q20 28 20 109v1286q0 82 -20 110t-80 28h-127q-19 0 -19 14z" glyph-name="bracketright" horiz-adv-x="606" unicode="]"/><glyph d="M488 1364q34 0 71 -39l336 -373q29 -31 -8 -30h-66q-35 0 -53 22l-262 301q-20 25 -39 0l-260 -303q-20 -20 -57 -20h-62q-18 0 -21 8t7 18l340 377q40 39 74 39z" glyph-name="asciicircum" horiz-adv-x="970" unicode="^"/><glyph d="M244 0h770q14 0 14 -14v-62q0 -14 -14 -14h-770q-14 0 -15 14v62q1 14 15 14z" glyph-name="underscore" horiz-adv-x="1257" unicode="_"/><glyph d="M74 1434h84q14 0 20 -15l109 -231q8 -25 -15 -25h-30q-23 0 -31 17l-148 237q-9 17 11 17z" glyph-name="grave" horiz-adv-x="385" unicode="`"/><glyph d="M668 350v154q0 25 -23 24h-199q-125 0 -178 -48t-53 -177t45 -179t161 -50q115 0 181 74t66 202zM420 1047q133 0 205 -34q143 -68 143 -370v-629q0 -14 -14 -14h-43q-20 0 -23 18l-10 95q-2 2 -6 2q-4 1 -14 -13q-91 -118 -273 -118q-143 0 -207 76q-63 77 -63 245 t76 239q77 71 233 70h215q27 0 27 27q0 242 -103 288q-103 49 -327 4q-35 -7 -41 -7q-17 0 -17 18l-6 37q0 14 4 21t21 14q90 31 223 31z" glyph-name="a" horiz-adv-x="925" unicode="a"/><glyph d="M500 950q-242 0 -242 -202v-449q0 -119 53 -169t183 -50q74 0 118 16t77 64q34 48 47 138q14 89 14 229q0 139 -14 223t-49 127q-34 43 -76 58t-111 15zM170 1434h76q12 0 12 -15v-458q0 -4 6 -5l33 33q73 57 189 57t174 -18q58 -20 104 -74q85 -101 86 -422 q0 -414 -152 -504q-74 -44 -202 -44q-188 0 -264 76q-75 77 -74 257v1102q0 15 12 15z" glyph-name="b" horiz-adv-x="966" unicode="b"/><glyph d="M471 -16q-203 0 -280 120t-76 414q0 293 73 411q74 118 271 118q127 0 198 -21q17 -4 23 -11t4 -26l-4 -41q-2 -16 -9 -16t-76 10t-118 10q-152 0 -204 -92t-52 -343t54 -344t214 -93q43 0 109 7t68 7q12 0 14 -16l4 -39q4 -30 -25 -37q-76 -18 -188 -18z" glyph-name="c" horiz-adv-x="815" unicode="c"/><glyph d="M702 332v405q0 113 -56 163t-181 50q-55 0 -90 -8q-86 -20 -119 -107q-39 -103 -39 -305q0 -358 98 -420q47 -30 164 -30t170 56t53 196zM719 1434h67q16 0 17 -17v-1079q0 -194 -77 -274t-273 -80q-127 0 -198 45t-105 159t-35 302q0 186 19 291q20 105 64 163 q80 104 229 103q149 0 224 -54q19 -12 29 -20t15 -8t5 10v442q1 17 19 17z" glyph-name="d" horiz-adv-x="960" unicode="d"/><glyph d="M227 567h465q6 0 6 8q0 242 -58 315q-32 40 -70 52t-104 12t-109 -13q-99 -29 -125 -168q-13 -75 -13 -195q0 -11 8 -11zM508 78q82 0 231 37q17 -1 19 -17l6 -35q4 -27 -25 -38q-90 -39 -220 -39q-129 0 -197 22q-148 47 -186 243q-19 103 -19 268q0 324 87 430 q46 57 107 77t158 21q178 -1 252 -101t74 -368v-37q0 -57 -60 -58h-508q-8 0 -8 -8v-20q0 -123 15 -198q16 -75 54 -114t88 -52t132 -13z" glyph-name="e" horiz-adv-x="894" unicode="e"/><glyph d="M186 1044v91q0 175 54 239t194 64q86 0 122 -10t41 -18q5 -7 3 -24l-4 -40q-2 -14 -16 -15q-2 0 -46 6t-112 6q-68 -1 -100 -41t-33 -163v-97q0 -10 14 -10h232q16 0 16 -18v-56q0 -16 -16 -16h-232q-14 0 -14 -14v-914q0 -14 -15 -14h-69q-18 0 -19 14v916q-2 12 -12 12 h-127q-16 0 -16 16v56q0 18 16 18h127q12 0 12 12z" glyph-name="f" horiz-adv-x="589" unicode="f"/><glyph d="M725 426v334q0 82 -63 137q-62 55 -194 55t-190 -85t-59 -316q0 -337 150 -396q43 -17 113 -17t112 20q43 20 87 65t44 203zM725 166h-4q-80 -125 -264 -125q-83 1 -143 23q-132 50 -175 236q-23 101 -22 251q0 281 78 389t263 107q185 0 267 -103q2 -2 7 -8t7 -6t4 12 l13 72q6 18 28 18h27q16 0 16 -18v-1006q0 -94 -14 -159t-53 -117q-77 -102 -295 -101q-143 0 -248 27q-23 8 -20 33l4 39q2 18 18 18l88 -12q88 -12 164 -12t130 18t81 60t35 88t8 124v152z" glyph-name="g" horiz-adv-x="985" unicode="g"/><glyph d="M172 1434h72q16 0 14 -15v-491q0 -4 4 -4t4 4q37 61 102 90t175 29q179 0 245 -81t66 -278v-674q0 -14 -14 -14h-76q-14 0 -14 14v672q0 154 -50 210t-179 56t-195 -61t-66 -205v-672q0 -14 -16 -14h-72q-14 0 -14 14v1405q0 15 14 15z" glyph-name="h" horiz-adv-x="1009" unicode="h"/><glyph d="M176 1032h70q16 0 16 -18v-998q0 -16 -16 -16h-72q-14 0 -14 16v998q0 18 16 18zM174 1434h74q16 0 16 -17v-203q0 -16 -16 -16h-74q-16 0 -16 16v203q0 17 16 17z" glyph-name="i" horiz-adv-x="421" unicode="i"/><glyph d="M229 1030h72q16 0 16 -14v-1079q0 -172 -55 -238t-194 -66q-86 1 -127 11t-45 16t-5 23l5 43q2 16 16 16q2 0 40 -7t115 -7q78 0 113 42t35 169v1077q0 14 14 14zM229 1434h70q18 0 18 -17v-184q0 -16 -18 -16h-70q-16 0 -16 16v184q0 17 16 17z" glyph-name="j" horiz-adv-x="473" unicode="j"/><glyph d="M174 1434h68q18 0 18 -17v-815q0 -10 8 -10h144q6 0 10 8l223 416q8 16 33 16h70q31 0 18 -24l-238 -420q-2 -8 4 -10q129 -25 179 -160l145 -400q6 -18 -14 -18h-70q-18 0 -24 20l-138 359q-23 59 -61 89q-39 30 -105 30h-176q-8 0 -8 -9v-473q0 -16 -18 -16h-68 q-16 0 -16 16v1401q0 17 16 17z" glyph-name="k" horiz-adv-x="899" unicode="k"/><glyph d="M178 1434h68q18 0 18 -17v-1401q0 -16 -18 -16h-68q-16 0 -16 16v1401q0 17 16 17z" glyph-name="l" horiz-adv-x="425" unicode="l"/><glyph d="M158 16v701q0 178 64 254q65 76 229 76q211 0 272 -152q8 -16 14 -2q49 154 273 154q164 0 228 -76t65 -254v-701q0 -16 -17 -16h-69q-16 0 -17 16v711q0 123 -47 173t-159 50t-163 -61t-51 -193v-680q0 -16 -14 -16h-70q-18 0 -18 16v680q0 134 -48 194t-162 60 t-161 -51t-47 -172v-711q0 -16 -18 -16h-68q-16 0 -16 16z" glyph-name="m" horiz-adv-x="1460" unicode="m"/><glyph d="M158 14v670q0 205 71 284q72 79 277 79q204 0 276 -79t72 -284v-670q0 -14 -16 -14h-72q-14 0 -14 14v672q0 162 -54 214t-192 52t-192 -52t-54 -214v-672q0 -14 -16 -14h-72q-14 0 -14 14z" glyph-name="n" horiz-adv-x="1009" unicode="n"/><glyph d="M471 952q-101 0 -153 -36t-76 -128t-23 -270q0 -178 24 -271q23 -93 75 -130t152 -37t153 37q51 37 74 130q24 93 24 271t-24 270t-74 128q-52 36 -152 36zM471 1047q207 0 281 -112t74 -417t-74 -420q-74 -114 -281 -114t-281 114t-73 420q0 305 73 417q74 112 281 112z " glyph-name="o" horiz-adv-x="940" unicode="o"/><glyph d="M260 692v-456q0 -80 60 -118t138 -38t117 9q95 22 131 113q39 103 39 307t-25 294q-26 90 -75 120q-49 29 -161 29t-169 -62q-55 -63 -55 -198zM158 -348v1053q0 170 82 256t262 86q130 2 202 -41q146 -87 146 -485t-154 -492q-74 -45 -173 -45q-162 0 -231 52 q-24 17 -28 17t-4 -6v-395q0 -16 -18 -17h-68q-16 1 -16 17z" glyph-name="p" horiz-adv-x="966" unicode="p"/><glyph d="M723 266v436q0 134 -55 190t-170 56t-168 -30q-111 -62 -111 -390q0 -329 93 -403q34 -27 72 -35t97 -8q131 0 203 70q39 40 39 114zM723 -348v407q0 12 -8 9q-96 -84 -250 -84q-95 0 -157 22q-137 50 -174 249q-19 108 -19 295q0 370 155 455q78 42 238 42t238 -83 q79 -83 79 -264v-1048q0 -16 -18 -17h-68q-16 1 -16 17z" glyph-name="q" horiz-adv-x="980" unicode="q"/><glyph d="M260 805v-791q0 -14 -16 -14h-72q-14 0 -14 14v793q0 135 52 187t164 52t155 -10q43 -12 49 -20t4 -27l-4 -35q-2 -16 -17 -16l-145 12q-88 0 -122 -28t-34 -117z" glyph-name="r" horiz-adv-x="645" unicode="r"/><glyph d="M719 283q1 -299 -317 -299q-164 0 -246 18q-16 2 -22 9q-5 7 -5 22l4 45q2 14 17 14q6 0 73 -8t156 -8q238 0 237 192q0 74 -33 111q-35 37 -141 90l-133 68q-53 25 -82 43t-59 50q-54 58 -53 183q0 125 79 179t230 54t240 -18q23 -4 22 -31l-6 -39q0 -16 -16 -16 q-2 0 -85 7t-167 7t-139 -30q-56 -30 -56 -112q0 -81 35 -120t129 -86l127 -59q119 -59 165 -113t46 -153z" glyph-name="s" horiz-adv-x="815" unicode="s"/><glyph d="M141 1235h58q18 0 20 -21l6 -165q2 -16 19 -17h235q18 0 19 -18v-56q0 -18 -19 -18h-237q-14 0 -15 -10v-705q0 -87 31 -115q30 -28 92 -28t106 6l44 6q14 0 14 -16l6 -45q4 -23 -24 -31q-57 -18 -129 -18q-139 0 -191 53q-51 53 -51 188v996q0 14 16 14z" glyph-name="t" horiz-adv-x="579" unicode="t"/><glyph d="M733 1032h70q16 0 16 -18v-652q1 -219 -69 -299q-70 -79 -262 -79t-262 81t-68 297v652q0 18 16 18h68q18 0 18 -18v-668q0 -162 49 -214t180 -52t180 52q48 52 48 214v668q0 18 16 18z" glyph-name="u" horiz-adv-x="976" unicode="u"/><glyph d="M731 1032h74q14 0 14 -14v-588q0 -47 -11 -77t-42 -68l-195 -250q-41 -51 -84 -51t-84 51l-196 252q-31 37 -40 65t-9 78v588q0 14 14 14h72q16 0 16 -14v-588q0 -47 31 -88l174 -236q12 -16 24 -16t25 16l172 236q31 41 31 88v588q0 14 14 14z" glyph-name="v" horiz-adv-x="976" unicode="v"/><glyph d="M1165 1032h68q16 0 16 -18v-598q0 -45 -11 -75t-42 -71l-160 -235q-35 -51 -83 -51t-85 51l-159 237q-5 14 -13 0l-168 -237q-40 -51 -80 -51t-77 51l-164 237q-29 39 -39 68t-10 76v598q0 18 16 18h68q18 0 18 -18v-596q0 -41 31 -88l141 -221q22 -29 39 0l152 221 q31 45 30 88v602q0 12 13 12h77q10 0 11 -12v-602q0 -41 30 -88l144 -221q26 -34 49 0l139 221q31 45 31 88v596q0 18 18 18z" glyph-name="w" horiz-adv-x="1406" unicode="w"/><glyph d="M659 1032h68q18 0 18 -18v-152q0 -88 -51 -137l-186 -190q-6 -6 0 -15l192 -186q49 -49 50 -137v-181q0 -16 -17 -16h-69q-16 0 -17 16v170q0 57 -31 90l-178 183q-6 8 -14 0l-174 -183q-31 -31 -31 -90v-170q0 -16 -18 -16h-68q-16 0 -16 16v181q0 84 49 137l190 192 q4 6 -2 13l-182 186q-51 53 -51 137v152q0 18 16 18h70q16 0 16 -18v-142q0 -61 33 -96l168 -176q8 -8 14 0l172 176q33 33 33 96v142q0 18 16 18z" glyph-name="x" horiz-adv-x="847" unicode="x"/><glyph d="M748 1032h71q14 0 15 -16v-1020q0 -180 -69 -273q-69 -94 -276 -94q-150 0 -235 27q-29 8 -27 33l4 47q2 14 17 14q4 0 80 -12t156 -12q158 0 204 68q47 68 47 200v172q0 6 -8 2q-31 -32 -94 -58t-152 -26q-175 0 -243 78t-68 280v574q0 16 14 16h72q16 0 16 -16v-567 q0 -161 50 -215t169 -54q120 0 180 45t60 115v676q1 16 17 16z" glyph-name="y" horiz-adv-x="1001" unicode="y"/><glyph d="M119 1032h553q29 0 41 -11t12 -38v-31q0 -41 -29 -82l-489 -757q-12 -16 4 -17h496q14 0 14 -14v-68q0 -14 -14 -14h-564q-53 0 -53 45v29q0 37 35 86l483 753q6 7 4 15t-10 8h-483q-14 0 -15 14v68q1 14 15 14z" glyph-name="z" horiz-adv-x="815" unicode="z"/><glyph d="M233 958v406q0 113 42 158q43 45 141 45t137 -11q25 -8 25 -36v-27q0 -12 -15 -12h-123q-66 0 -88 -31t-22 -119v-426q0 -111 -88 -155q-33 -16 13 -41q27 -13 51 -59t24 -113v-453q0 -88 22 -119t88 -31h123q14 0 15 -12v-26q0 -29 -25 -37q-39 -11 -137 -11t-141 46 q-42 46 -42 157v457q0 82 -20 117t-59 57t-39 45q0 25 5 33q4 8 38 28t54 54q20 36 21 116z" glyph-name="braceleft" horiz-adv-x="667" unicode="{"/><glyph d="M213 1636h63q14 0 15 -16v-1874q0 -14 -15 -14h-63q-14 0 -14 14v1874q0 16 14 16z" glyph-name="bar" horiz-adv-x="489" unicode="|"/><glyph d="M90 1493v27q0 29 25 36q41 10 139 10t140 -44q40 -45 40 -158v-406q0 -80 22 -116t54 -54q32 -20 38 -28t7 -26q0 -18 -6 -26q-6 -9 -39 -29q-32 -21 -54 -55t-22 -116v-457q0 -113 -41 -157t-140 -46q-99 0 -138 11q-25 8 -25 37v26q0 12 14 12h123q69 0 91 31t22 119 v453q0 69 25 113q26 47 66 69q7 4 7 14q0 11 -7 15t-21 11q-70 37 -70 146v426q0 88 -23 119t-90 31h-123q-14 0 -14 12z" glyph-name="braceright" horiz-adv-x="677" unicode="}"/><glyph d="M775 862q24 0 31 -5t3 -19q-43 -160 -193 -160q-72 0 -160 51t-134 51q-89 0 -132 -90q-10 -18 -18 -23t-31 -5t-29 5t-3 19q51 176 210 176q57 0 109 -24t98 -51q45 -25 87 -25q84 1 116 76q6 14 14 19t32 5z" glyph-name="asciitilde" horiz-adv-x="917" unicode="~"/><glyph d="M244 -410h-78q-14 0 -14 17v907q0 14 14 14h78q14 0 14 -14v-907q0 -17 -14 -17zM242 723h-74q-16 0 -16 14v271q0 16 16 16h74q16 0 16 -16v-271q0 -14 -16 -14z" glyph-name="exclamdown" horiz-adv-x="407" unicode="¡"/><glyph d="M449 1434h59q16 0 16 -17v-246q0 -10 11 -12q169 -4 167 -51l-6 -49q0 -14 -14 -15q-4 0 -58 10t-139 9q-141 0 -188 -76q-47 -75 -47 -273t48 -277t189 -79q71 0 131 8t64 7q14 0 14 -15l6 -43q0 -25 -24 -32q-66 -20 -164 -21q-12 0 -12 -10v-238q0 -14 -15 -14h-61 q-14 0 -14 14v240q0 8 -9 10q-145 14 -203 122t-58 330t62 327t218 116q10 0 10 12v246q1 17 17 17z" glyph-name="cent" horiz-adv-x="841" unicode="¢"/><glyph d="M221 877v184q0 199 68 293t250 94q121 0 189 -14t72 -21q4 -6 5 -18l-4 -56q-1 -16 -11 -16t-78 12t-177 12q-109 1 -155 -61t-46 -205v-204q0 -14 12 -15h365q16 0 16 -12v-62q0 -16 -16 -16h-365q-12 0 -12 -12v-651q0 -12 12 -13h422q14 0 14 -14v-68q0 -14 -14 -14 h-633q-12 0 -12 14v39q0 16 14 21l70 12q14 4 14 16v658q0 12 -12 12h-88q-14 0 -15 14v64q0 12 15 12h88q12 1 12 15z" glyph-name="sterling" horiz-adv-x="862" unicode="£"/><glyph d="M827 518q0 150 -49 216t-171 67q-122 0 -172 -66q-50 -67 -50 -219t50 -220t171 -69q121 0 171 70q50 71 50 221zM928 522q0 -148 -41 -241q-4 -8 4 -17l205 -198q10 -8 0 -21l-41 -39q-10 -10 -21 0l-194 193q-6 6 -19 2q-66 -66 -210 -66t-222 66q-8 2 -14 -2 l-195 -195q-10 -8 -18 0l-41 41q-10 10 0 21l201 198q6 6 4 17q-43 85 -43 237t45 234q2 10 -6 16l-201 201q-10 10 0 22l39 39q10 8 20 0l195 -194q8 -8 16 -5q74 61 218 61t210 -61q10 -4 19 3l196 196q10 10 21 0l41 -39q10 -10 0 -20l-205 -203q-8 -8 -6 -16 q43 -82 43 -230z" glyph-name="currency" horiz-adv-x="1216" unicode="¤"/><glyph d="M874 1434h80q14 0 15 -15v-399q0 -66 -51 -121l-191 -235q-4 -4 -2 -8t8 -5h242q14 0 14 -14v-49q0 -16 -14 -17h-295q-23 0 -23 -24v-103q0 -12 13 -12h305q14 0 14 -14v-51q0 -14 -14 -15h-305q-12 0 -13 -14v-324q0 -14 -14 -14h-78q-14 0 -14 14v324q0 14 -14 14 h-322q-14 0 -14 15v51q0 14 14 14h324q12 0 12 12v103q0 25 -27 24h-309q-14 0 -14 15v51q0 14 14 14h256q17 0 4 15l-203 233q-29 33 -39 59t-10 68v393q0 14 15 15h79q12 0 13 -15v-391q0 -37 24 -65l230 -273q20 -25 39 2l213 271q27 35 26 69v387q0 15 12 15z" glyph-name="yen" horiz-adv-x="1189" unicode="¥"/><glyph d="M217 541h64q14 0 14 -15v-782q0 -12 -14 -12h-64q-14 0 -14 12v782q0 15 14 15zM217 1636h64q14 0 14 -16v-711q0 -23 -14 -22h-64q-14 0 -14 22v711q0 16 14 16z" glyph-name="brokenbar" horiz-adv-x="497" unicode="¦"/><glyph d="M266 723q0 -152 190 -152t189 150q0 75 -45 109t-145 34q-189 0 -189 -141zM485 1360q-186 0 -186 -146q0 -155 156 -231q37 -18 75 -31q113 -31 163 -79t50 -146q0 -199 -196 -219q-4 0 -4 -5t4 -7q100 -48 138 -104t38 -146q0 -134 -72 -198t-214 -64t-214 22 q-32 8 -30 37l4 37q2 18 20 18q4 0 73 -9t118 -9q116 0 164 41t48 130t-50 136q-52 47 -178 91t-175 96t-49 147q0 188 188 207q4 0 4 6t-2 8q-48 35 -76 63q-28 29 -56 83t-27 124q0 130 63 184q64 54 210 54t186 -11t38 -30l-4 -47q-2 -16 -18 -16q-6 0 -73 7t-116 7z" glyph-name="section" horiz-adv-x="905" unicode="§"/><glyph d="M326 1434h59q16 0 16 -17v-225q0 -14 -16 -14h-59q-16 0 -17 14v225q1 17 17 17zM117 1434h59q16 0 17 -17v-225q0 -14 -17 -14h-59q-16 0 -17 14v225q1 17 17 17z" glyph-name="dieresis" horiz-adv-x="501" unicode="¨"/><glyph d="M356 976q0 148 39 214t156 65q49 0 75 -9t30 -14q3 -5 3 -18v-22q0 -12 -10 -12l-37 7q-37 7 -63 7q-69 0 -97 -50t-28 -169t27 -168t98 -49q41 0 73 7q33 7 35 7q11 0 11 -10l2 -19q0 -43 -120 -44t-157 64t-37 213zM546 1382q-175 0 -262 -99t-87 -317t87 -318t263 -99 q176 0 264 100q88 99 88 317t-89 317t-264 99zM547 1434q207 0 307 -116t100 -352t-99 -353t-308 -117t-308 118t-100 355q0 465 408 465z" glyph-name="copyright" horiz-adv-x="1095" unicode="©"/><glyph d="M430 1042v48q0 16 -16 16h-125q-70 0 -98 -24t-27 -83q0 -115 110 -114q72 0 114 47t42 110zM256 813q-176 0 -176 176q0 98 47 140t152 42h139q12 0 12 11v63q0 69 -36 95t-114 26t-114 -9t-45 -9q-10 0 -10 16v22q0 23 20 33q51 21 161 21t162 -43q54 -43 54 -150v-411 q0 -16 -16 -17h-25q-10 0 -12 12l-17 64q-2 6 -6 0q-59 -82 -176 -82z" glyph-name="ordfeminine" horiz-adv-x="612" unicode="ª"/><glyph d="M424 578l256 294q10 10 18 0l43 -41q8 -10 0 -18l-233 -268q-8 -10 0 -19l233 -268q8 -8 0 -18l-43 -41q-8 -8 -18 2l-256 291q-37 43 0 86zM137 578l246 294q10 10 20 0l41 -41q10 -10 0 -18l-223 -268q-8 -10 0 -19l223 -268q8 -8 0 -18l-41 -41q-10 -8 -20 2l-246 291 q-35 43 0 86z" glyph-name="guillemotleft" horiz-adv-x="872" unicode="«"/><glyph d="M178 647h684q117 0 170 -55t53 -180v-138q0 -25 -24 -24h-51q-25 0 -25 24v111q0 86 -35 124t-114 38h-658q-27 0 -26 24v52q-1 24 26 24z" glyph-name="logicalnot" horiz-adv-x="1239" unicode="¬"/><glyph d="M137 604h449q16 0 16 -14v-60q0 -16 -16 -16h-449q-14 0 -14 14v62q0 14 14 14z" glyph-name="uni00AD" horiz-adv-x="724" unicode="­"/><glyph d="M455 993h82q53 0 77 25t25 81q-1 56 -21 80q-20 23 -75 23t-78 -24t-21 -78v-96q1 -11 11 -11zM379 723v381q0 80 38 119t128 39q162 0 162 -164q0 -113 -89 -152q-8 -4 -4 -12l125 -211q8 -12 -8 -12h-43q-14 0 -20 12l-109 186q-12 20 -41 21h-61q-12 0 -13 -12v-195 q0 -12 -12 -12h-41q-12 0 -12 12zM546 1382q-175 0 -262 -99t-87 -317t87 -318t263 -99q176 0 264 100q88 99 88 317t-89 317t-264 99zM547 1434q207 0 307 -116t100 -352t-99 -353t-308 -117t-308 118t-100 355q0 465 408 465z" glyph-name="registered" horiz-adv-x="1095" unicode="®"/><glyph d="M135 1341h428q14 0 15 -14v-57q0 -14 -15 -15h-428q-14 0 -14 15v57q0 14 14 14z" glyph-name="macron" horiz-adv-x="698" unicode="¯"/><glyph d="M340 975q158 -1 158 197t-158 198q-82 0 -121 -47t-39 -150t39 -151t121 -47zM339 1444q243 0 243 -270t-243 -271q-243 1 -243 271t243 270z" glyph-name="degree" horiz-adv-x="677" unicode="°"/><glyph d="M182 307h690q16 0 17 -14v-60q0 -16 -17 -16h-690q-14 0 -14 14v62q0 14 14 14zM496 1266h63q14 0 14 -15v-293q0 -12 15 -12h284q4 0 10 2t7 -4v-74q0 -14 -17 -14h-284q-14 0 -15 -14v-299q0 -14 -14 -15h-63q-14 0 -15 15v297q0 16 -14 16h-285q-14 0 -14 14v74 q0 6 5 4t9 -2h285q14 0 14 12v293q1 15 15 15z" glyph-name="plusminus" horiz-adv-x="1054" unicode="±"/><glyph d="M285 1894q235 0 235 -173q0 -133 -123 -232q-51 -41 -102 -83q-123 -101 -123 -230q0 -4 4 -5h340q10 0 10 -8v-59q0 -8 -10 -8h-424q-14 0 -14 12v37q0 149 92 246q62 65 161 144t99 154t-37 103t-124 27q-87 1 -126 -7t-45 -8t-8 8l-4 43q-2 16 12 21q61 18 187 18z " glyph-name="uni00B2" horiz-adv-x="606" unicode="²"/><glyph d="M406 1686q0 72 -37 104t-121 33q-84 0 -150 -13q-10 1 -12 11l-4 34q-6 39 149 39q154 0 206 -48t52 -150q0 -141 -100 -174q-12 -2 0 -6q127 -23 127 -187q0 -119 -57 -180t-185 -61t-176 18q-14 6 -12 22l4 35q2 11 8 11t49 -6t125 -7q82 0 121 40t39 125t-33 119 t-120 34h-95q-12 0 -12 12v43q0 16 12 16h84q78 0 108 32t30 104z" glyph-name="uni00B3" horiz-adv-x="595" unicode="³"/><glyph d="M207 1434h92q10 0 13 -6t-3 -13l-145 -237q-8 -14 -25 -15h-41q-27 0 -14 23l102 233q5 15 21 15z" glyph-name="acute" horiz-adv-x="401" unicode="´"/><glyph d="M864 1434h43q23 0 23 -21v-1397q0 -16 -19 -16h-51q-16 0 -16 16v1397q0 21 20 21zM643 727h-160q-178 0 -251 85q-72 84 -72 274t72 277q73 87 234 87t216 -65t55 -220v-1147q0 -18 -16 -18h-51q-18 0 -19 18v699q0 10 -8 10z" glyph-name="paragraph" horiz-adv-x="1128" unicode="¶"/><glyph d="M217 852h74q16 0 16 -18v-261q0 -16 -16 -16h-74q-16 0 -16 16v261q0 18 16 18z" glyph-name="periodcentered" horiz-adv-x="507" unicode="·"/><glyph d="M217 37h68q16 0 10 -14l-76 -256q-8 -20 -29 -21h-51q-16 0 -12 18l66 256q4 17 24 17z" glyph-name="cedilla" horiz-adv-x="425" unicode="¸"/><glyph d="M143 1853q0 39 120 39t120 -98v-688q0 -10 -12 -10h-60q-10 0 -10 10v651q0 35 -17 52t-100 6l-28 -5q-13 1 -13 11v32z" glyph-name="uni00B9" horiz-adv-x="550" unicode="¹"/><glyph d="M314 1368q-90 0 -120 -51t-30 -189t31 -188q31 -51 119 -51t120 51q31 51 31 188q0 136 -31 188t-120 52zM314 1442q138 0 186 -72t47 -243q0 -171 -48 -243q-49 -72 -185 -71q-136 0 -184 72q-48 73 -48 243t47 242t185 72z" glyph-name="ordmasculine" horiz-adv-x="628" unicode="º"/><glyph d="M133 831l41 41q10 10 19 0l258 -294q35 -43 0 -86l-258 -291q-8 -10 -19 -2l-41 41q-10 10 0 18l234 268q8 8 0 19l-236 268q-8 8 2 18zM430 831l41 41q10 10 18 0l246 -294q37 -43 0 -86l-246 -291q-8 -10 -18 -2l-41 41q-10 10 0 18l221 268q8 8 0 19l-223 268 q-8 8 2 18z" glyph-name="guillemotright" horiz-adv-x="872" unicode="»"/><glyph d="M1169 227v449q-12 0 -22 -17l-189 -311q-23 -37 -22 -72v-51q0 -6 8 -6h217q8 0 8 8zM1198 788h25q25 0 24 -28v-533q0 -8 8 -8h95q8 0 8 -10v-53q0 -8 -8 -9h-95q-8 0 -8 -8v-131q0 -8 -10 -8h-57q-10 0 -11 8v131q0 8 -8 8h-258q-49 0 -49 39v74q0 39 7 59t30 56 l231 368q27 45 76 45zM143 1403q0 37 120 38t120 -98v-688q0 -10 -12 -10h-60q-10 0 -10 10v652q0 35 -13 48t-44 13t-60 -4l-28 -4q-13 0 -13 10v33zM897 1456h37q16 0 12 -14l-461 -1452q-4 -16 -20 -17h-35q-16 0 -12 15l461 1454q4 14 18 14z" glyph-name="onequarter" horiz-adv-x="1400" unicode="¼"/><glyph d="M1241 602q-1 121 -141 121q-100 0 -142 -7t-49 -7q-6 0 -8 8l-4 43q-2 16 12 20q61 18 186 18t181 -45t55 -127q0 -82 -36 -137t-87 -96t-102 -83q-123 -101 -123 -230q0 -4 4 -4h340q10 0 10 -8v-60q0 -8 -10 -8h-424q-14 0 -14 12v39q0 88 36 161t88 119t104 86 q124 95 124 185zM143 1403q0 37 120 38t120 -98v-688q0 -10 -12 -10h-60q-10 0 -10 10v652q0 35 -13 48t-44 13t-60 -4l-28 -4q-13 0 -13 10v33zM897 1456h37q16 0 12 -14l-461 -1452q-4 -16 -20 -17h-35q-16 0 -12 15l461 1454q4 14 18 14z" glyph-name="onehalf" horiz-adv-x="1415" unicode="½"/><glyph d="M1214 227v449q-12 0 -22 -17l-188 -311q-25 -37 -25 -72v-51q0 -6 10 -6h217q8 0 8 8zM1243 788h25q23 0 22 -28v-533q0 -8 10 -8h95q8 0 8 -10v-53q0 -8 -8 -9h-95q-10 0 -10 -8v-131q0 -8 -8 -8h-57q-10 0 -11 8v131q0 8 -8 8h-258q-49 0 -49 39v74q0 39 7 59t30 56 l229 368q29 45 78 45zM275 711q157 0 157 165q0 84 -33 118t-120 34h-95q-12 0 -12 12v43q0 16 12 17h84q78 0 108 32t30 104t-37 104t-111 32t-115 -6q-39 -6 -47 -6t-10 10l-4 35q-5 37 149 38t206 -47t52 -151q0 -141 -100 -174q-12 -2 0 -6q127 -23 127 -186 q0 -119 -57 -181t-185 -61q-128 0 -176 18q-14 6 -12 23l4 35q2 10 8 10t52 -6t125 -6zM942 1456h37q16 0 10 -14l-459 -1452q-4 -16 -20 -17h-35q-16 0 -12 15l459 1454q4 14 20 14z" glyph-name="threequarters" horiz-adv-x="1445" unicode="¾"/><glyph d="M468 -424q-206 0 -285 64t-79 206q0 143 90 210q45 33 163 117q38 28 64 81t25 125v141q0 18 17 19h67q16 0 17 -19v-158q0 -80 -25 -141q-26 -61 -62 -94q-72 -65 -159 -117q-86 -53 -86 -154q0 -100 59 -140t199 -40t220 14q79 14 89 13q10 0 11 -14l6 -58 q2 -20 -17 -26q-108 -29 -314 -29zM537 725h-82q-14 0 -15 16v267q0 16 15 16h82q16 0 16 -16v-267q0 -16 -16 -16z" glyph-name="questiondown" horiz-adv-x="940" unicode="¿"/><glyph d="M566 1327q-6 0 -17 -10l-219 -250q-20 -23 -21 -53v-455q0 -12 13 -12h483q12 0 12 12v455q0 30 -20 53l-219 250q-6 10 -12 10zM564 1444q36 0 69 -35l248 -281q45 -47 45 -112v-1000q0 -16 -19 -16h-73q-16 0 -17 16v418q0 12 -12 12h-483q-12 0 -13 -12v-418 q0 -16 -18 -16h-74q-16 0 -16 16v1000q0 65 45 112l250 281q32 35 68 35zM600 1536h-35q-25 0 -45 16l-188 152q-14 15 2 25l69 28q20 8 35 -10l170 -184q18 -27 -8 -27z" glyph-name="Agrave" unicode="À"/><glyph d="M566 1327q-6 0 -17 -10l-219 -250q-20 -23 -21 -53v-455q0 -12 13 -12h483q12 0 12 12v455q0 30 -20 53l-219 250q-6 10 -12 10zM564 1444q36 0 69 -35l248 -281q45 -47 45 -112v-1000q0 -16 -19 -16h-73q-16 0 -17 16v418q0 12 -12 12h-483q-12 0 -13 -12v-418 q0 -16 -18 -16h-74q-16 0 -16 16v1000q0 65 45 112l250 281q32 35 68 35zM563 1532h-41q-26 0 -6 20l186 187q20 25 54 8l45 -27q18 -10 2 -24l-189 -150q-20 -14 -51 -14z" glyph-name="Aacute" unicode="Á"/><glyph d="M566 1327q-6 0 -17 -10l-219 -250q-20 -23 -21 -53v-455q0 -12 13 -12h483q12 0 12 12v455q0 30 -20 53l-219 250q-6 10 -12 10zM564 1444q36 0 69 -35l248 -281q45 -47 45 -112v-1000q0 -16 -19 -16h-73q-16 0 -17 16v418q0 12 -12 12h-483q-12 0 -13 -12v-418 q0 -16 -18 -16h-74q-16 0 -16 16v1000q0 65 45 112l250 281q32 35 68 35zM367 1599l182 117q12 6 24 0l183 -117q8 -4 4 -14l-21 -45q-4 -12 -18 -6l-148 90q-12 8 -24 0l-148 -90q-14 -8 -18 6l-23 45q-1 8 7 14z" glyph-name="Acircumflex" unicode="Â"/><glyph d="M566 1327q-6 0 -17 -10l-219 -250q-20 -23 -21 -53v-455q0 -12 13 -12h483q12 0 12 12v455q0 30 -20 53l-219 250q-6 10 -12 10zM564 1444q36 0 69 -35l248 -281q45 -47 45 -112v-1000q0 -16 -19 -16h-73q-16 0 -17 16v418q0 12 -12 12h-483q-12 0 -13 -12v-418 q0 -16 -18 -16h-74q-16 0 -16 16v1000q0 65 45 112l250 281q32 35 68 35zM733 1716q7 4 35 4t29 -18q-31 -160 -135 -160q-44 0 -104 42t-87 42t-40 -12t-23 -40t-18 -32t-28 -4t-27 4t-5 14q25 148 124 148q52 0 113 -41t86 -41t41 17t27 61q6 12 12 16z" glyph-name="Atilde" unicode="Ã"/><glyph d="M566 1327q-6 0 -17 -10l-219 -250q-20 -23 -21 -53v-455q0 -12 13 -12h483q12 0 12 12v455q0 30 -20 53l-219 250q-6 10 -12 10zM564 1444q36 0 69 -35l248 -281q45 -47 45 -112v-1000q0 -16 -19 -16h-73q-16 0 -17 16v418q0 12 -12 12h-483q-12 0 -13 -12v-418 q0 -16 -18 -16h-74q-16 0 -16 16v1000q0 65 45 112l250 281q32 35 68 35zM641 1737h66q16 0 16 -17v-168q0 -16 -16 -16h-66q-14 0 -14 16v168q0 17 14 17zM420 1737h65q14 0 15 -17v-168q0 -16 -15 -16h-65q-16 0 -17 16v168q1 17 17 17z" glyph-name="Adieresis" unicode="Ä"/><glyph d="M566 1327q-6 0 -17 -10l-219 -250q-20 -23 -21 -53v-455q0 -12 13 -12h483q12 0 12 12v455q0 30 -20 53l-219 250q-6 10 -12 10zM564 1444q36 0 69 -35l248 -281q45 -47 45 -112v-1000q0 -16 -19 -16h-73q-16 0 -17 16v418q0 12 -12 12h-483q-12 0 -13 -12v-418 q0 -16 -18 -16h-74q-16 0 -16 16v1000q0 65 45 112l250 281q32 35 68 35zM563 1759q-35 0 -50 -18q-15 -19 -15 -61t15 -59t50 -17t50 17t15 59t-14 60q-16 18 -51 19zM563 1544q-129 0 -129 137q0 72 32 104t97 32t97 -32t32 -104q0 -137 -129 -137z" glyph-name="Aring" unicode="Å"/><glyph d="M727 530v783q0 14 -14 14h-92q-14 0 -25 -12l-266 -289q-20 -25 -21 -57v-441q0 -10 10 -10h396q12 0 12 12zM616 1434h746q14 0 14 -15v-71q0 -14 -14 -15h-500q-29 0 -28 -26v-502q0 -12 12 -12h461q14 0 14 -15v-69q0 -14 -14 -15h-461q-12 0 -12 -12v-422 q0 -96 36 -128t146 -32h346q14 0 14 -14v-72q0 -14 -14 -14h-365q-143 0 -205 55t-63 172v166q0 20 -20 21h-390q-10 0 -10 -13v-387q0 -14 -14 -14h-82q-12 0 -12 14v961q0 68 35 104l301 318q32 37 79 37z" glyph-name="AE" horiz-adv-x="1576" unicode="Æ"/><glyph d="M526 -254q-18 0 -14 18l55 222q-188 4 -275 96q-88 92 -110 348q-10 117 -10 294t12 298q25 256 124 342t284 86q184 0 266 -18q27 -4 25 -31l-4 -53q0 -14 -15 -15q-2 0 -146 13t-213 -4t-112 -54q-43 -36 -65 -108q-44 -145 -43 -442q0 -297 22 -399q22 -103 45 -145 t64 -68q66 -42 195 -42q128 0 194 9t76 9t12 -16l4 -39q2 -29 -27 -39q-59 -18 -200 -22l-66 -219q-6 -20 -29 -21h-49z" glyph-name="Ccedilla" horiz-adv-x="991" unicode="Ç"/><glyph d="M537 1434h335q16 0 17 -17v-67q0 -16 -17 -17h-309q-164 0 -209 -42t-45 -195v-293q0 -12 10 -12h498q16 0 17 -17v-65q0 -18 -17 -19h-498q-10 0 -10 -10v-342q0 -154 45 -196t209 -42h309q16 0 17 -16v-68q0 -16 -17 -16h-319q-207 0 -280 66t-72 245v811q0 178 70 245 q71 67 266 67zM602 1536h-37q-23 0 -43 16l-190 152q-14 15 4 25l70 28q20 8 34 -10l170 -184q16 -27 -8 -27z" glyph-name="Egrave" horiz-adv-x="1032" unicode="È"/><glyph d="M537 1434h333q18 0 19 -17v-67q0 -16 -19 -17h-307q-164 0 -209 -42t-45 -195v-293q0 -12 10 -12h498q16 0 17 -17v-65q0 -18 -17 -19h-498q-10 0 -10 -10v-342q0 -154 45 -196t209 -42h307q18 0 19 -16v-68q0 -16 -19 -16h-317q-207 0 -280 66t-72 245v811q0 178 70 245 q71 67 266 67zM565 1532h-41q-26 0 -8 20l189 187q18 25 51 8l47 -27q18 -10 2 -24l-189 -150q-20 -14 -51 -14z" glyph-name="Eacute" horiz-adv-x="1032" unicode="É"/><glyph d="M537 1434h335q16 0 17 -17v-67q0 -16 -17 -17h-309q-164 0 -209 -42t-45 -195v-293q0 -12 10 -12h498q16 0 17 -17v-65q0 -18 -17 -19h-498q-10 0 -10 -10v-342q0 -154 45 -196t209 -42h309q16 0 17 -16v-68q0 -16 -17 -16h-319q-207 0 -280 66t-72 245v811q0 178 70 245 q71 67 266 67zM367 1599l184 117q12 6 22 0l185 -117q8 -4 4 -14l-23 -45q-4 -12 -16 -6l-150 90q-10 8 -22 0l-150 -90q-12 -8 -16 6l-23 45q-3 8 5 14z" glyph-name="Ecircumflex" horiz-adv-x="1032" unicode="Ê"/><glyph d="M537 1434h335q16 0 17 -17v-67q0 -16 -17 -17h-309q-164 0 -209 -42t-45 -195v-293q0 -12 10 -12h498q16 0 17 -17v-65q0 -18 -17 -19h-498q-10 0 -10 -10v-342q0 -154 45 -196t209 -42h309q16 0 17 -16v-68q0 -16 -17 -16h-319q-207 0 -280 66t-72 245v811q0 178 70 245 q71 67 266 67zM643 1737h66q14 0 14 -17v-168q0 -16 -14 -16h-66q-16 0 -16 16v168q0 17 16 17zM422 1737h65q14 0 15 -17v-168q0 -16 -15 -16h-65q-16 0 -16 16v168q0 17 16 17z" glyph-name="Edieresis" horiz-adv-x="1032" unicode="Ë"/><glyph d="M217 1434h76q16 0 16 -17v-1401q0 -16 -16 -16h-76q-16 0 -16 16v1401q0 17 16 17zM291 1536h-35q-23 0 -43 16l-190 152q-14 15 4 25l67 28q23 8 35 -10l170 -184q18 -27 -8 -27z" glyph-name="Igrave" horiz-adv-x="509" unicode="Ì"/><glyph d="M217 1434h76q16 0 16 -17v-1401q0 -16 -16 -16h-76q-16 0 -16 16v1401q0 17 16 17zM254 1532h-39q-26 0 -8 20l188 187q18 25 51 8l48 -27q16 -10 2 -24l-189 -150q-20 -14 -53 -14z" glyph-name="Iacute" horiz-adv-x="509" unicode="Í"/><glyph d="M217 1434h76q16 0 16 -17v-1401q0 -16 -16 -16h-76q-16 0 -16 16v1401q0 17 16 17zM57 1599l185 117q10 6 22 0l182 -117q10 -4 7 -14l-23 -45q-4 -12 -18 -6l-148 90q-10 8 -22 0l-150 -90q-14 -8 -18 6l-21 45q-4 8 4 14z" glyph-name="Icircumflex" horiz-adv-x="509" unicode="Î"/><glyph d="M217 1434h76q16 0 16 -17v-1401q0 -16 -16 -16h-76q-16 0 -16 16v1401q0 17 16 17zM334 1737h63q16 0 17 -17v-168q0 -16 -17 -16h-63q-16 0 -17 16v168q1 17 17 17zM113 1737h63q16 0 17 -17v-168q0 -16 -17 -16h-63q-16 0 -17 16v168q1 17 17 17z" glyph-name="Idieresis" horiz-adv-x="509" unicode="Ï"/><glyph d="M360 100h228q156 0 233 70q111 100 111 547q0 300 -46 438q-24 72 -66 110q-75 68 -232 68h-228q-10 0 -10 -10v-532q0 -10 10 -11h285q16 0 17 -14v-51q0 -14 -17 -15h-285q-10 0 -10 -8v-581q0 -11 10 -11zM299 1434h309q94 0 158 -16q150 -39 212 -193 q62 -153 64 -506t-62 -509q-64 -155 -213 -194q-65 -16 -159 -16h-311q-25 0 -40 16t-15 41v635q0 8 -9 8h-133q-14 0 -14 15v51q0 14 14 14h133q8 0 9 11v587q0 24 16 40t41 16z" glyph-name="Eth" horiz-adv-x="1216" unicode="Ð"/><glyph d="M899 1434h80q14 0 14 -15v-1386q0 -33 -32 -33h-29q-23 0 -31 18l-596 1147q-2 4 -6 4t-4 -6v-1149q0 -14 -14 -14h-80q-14 0 -15 14v1387q0 33 33 33h35q20 0 33 -21l590 -1137q2 -4 6 -4t4 7v1140q0 15 12 15zM790 1720q22 0 29 -4q6 -4 6 -14q-29 -160 -135 -160 q-45 0 -104 42t-85 42t-39 -12q-12 -12 -24 -40t-19 -32t-27 -4t-28 4q-7 4 -6 14q14 70 43 109t81 39t114 -41t86 -41q25 0 41 17q17 17 25 45t14 32t28 4z" glyph-name="Ntilde" horiz-adv-x="1181" unicode="Ñ"/><glyph d="M594 1348q-80 0 -130 -18q-112 -39 -146 -176q-33 -137 -33 -436t33 -438t146 -176q52 -16 131 -16q151 0 218 72q90 95 90 559q0 302 -33 438q-33 135 -145 173q-51 18 -131 18zM595 1450q187 0 270 -69q48 -38 77 -90q55 -99 69 -325q5 -99 5 -260t-9 -274 q-21 -260 -114 -355t-299 -94t-299 96t-114 353q-9 113 -9 342q0 387 70 509t195 152q67 15 158 15zM631 1536h-35q-23 0 -43 16l-191 152q-13 15 5 25l67 28q23 8 35 -10l172 -184q16 -27 -10 -27z" glyph-name="Ograve" horiz-adv-x="1187" unicode="Ò"/><glyph d="M594 1348q-80 0 -131 -18q-111 -38 -145 -175q-33 -137 -33 -437q0 -299 33 -438t146 -176q52 -16 131 -16q151 0 218 72q90 95 90 559q0 302 -33 438q-33 135 -145 173q-51 18 -131 18zM595 1450q187 0 270 -69q48 -38 77 -90q55 -99 69 -325q5 -99 5 -260t-9 -274 q-21 -260 -114 -355t-299 -94t-299 96t-114 353q-9 113 -9 342q0 387 70 509t195 152q67 15 158 15zM596 1532h-41q-26 0 -8 20l188 187q18 25 51 8l48 -27q16 -10 2 -24l-189 -150q-20 -14 -51 -14z" glyph-name="Oacute" horiz-adv-x="1187" unicode="Ó"/><glyph d="M595 1348q-79 0 -130 -18q-113 -39 -147 -175q-33 -137 -33 -437q0 -299 33 -438t146 -176q52 -16 131 -16q151 0 218 72q90 95 90 559q0 302 -33 438q-33 135 -145 173q-51 18 -130 18zM595 1450q187 0 270 -69q48 -38 77 -90q55 -99 69 -325q5 -99 5 -260t-9 -274 q-21 -260 -114 -355t-299 -94t-299 96t-114 353q-9 113 -9 342q0 387 70 509t195 152q67 15 158 15zM397 1599l185 117q10 6 22 0l182 -117q10 -4 7 -14l-23 -45q-4 -12 -18 -6l-148 90q-10 8 -22 0l-150 -90q-12 -8 -18 6l-21 45q-4 8 4 14z" glyph-name="Ocircumflex" horiz-adv-x="1187" unicode="Ô"/><glyph d="M594 1348q-80 0 -131 -18q-111 -38 -145 -175q-33 -137 -33 -437q0 -299 33 -438t146 -176q52 -16 131 -16q151 0 218 72q90 95 90 559q0 302 -33 438q-33 135 -145 173q-51 18 -131 18zM595 1450q187 0 270 -69q48 -38 77 -90q55 -99 69 -325q5 -99 5 -260t-9 -274 q-21 -260 -114 -355t-299 -94t-299 96t-114 353q-9 113 -9 342q0 387 70 509t195 152q67 15 158 15zM360 1556q30 148 126 148q52 0 114 -41q61 -41 85 -41t40 17q17 17 25 45t14 32t29 4t29 -4t5 -14q-29 -160 -133 -160q-45 0 -105 42t-86 42t-39 -12q-14 -12 -24 -40 t-18 -32t-34 -4t-28 18z" glyph-name="Otilde" horiz-adv-x="1187" unicode="Õ"/><glyph d="M596 1348q-80 0 -131 -18q-113 -39 -147 -175q-33 -137 -33 -437q0 -299 33 -438t146 -176q52 -16 131 -16q151 0 218 72q90 95 90 559q0 302 -33 438t-144 173q-50 18 -130 18zM595 1450q187 0 270 -69q48 -38 77 -90q55 -99 69 -325q5 -99 5 -260t-9 -274 q-21 -260 -114 -355t-299 -94t-299 96t-114 353q-9 113 -9 342q0 387 70 509t195 152q67 15 158 15zM674 1737h63q16 0 17 -17v-168q0 -16 -17 -16h-63q-16 0 -17 16v168q1 17 17 17zM453 1737h63q16 0 16 -17v-168q0 -16 -16 -16h-63q-16 0 -17 16v168q1 17 17 17z" glyph-name="Odieresis" horiz-adv-x="1187" unicode="Ö"/><glyph d="M813 424h43q10 0 10 -12v-205q0 -10 11 -10h202q10 0 11 -11v-43q0 -10 -11 -10h-202q-10 0 -11 -10v-211q0 -10 -10 -10h-43q-10 0 -10 10v209q0 12 -10 12h-203q-10 0 -10 10v43q0 10 10 11h201q12 0 12 10v205q0 12 10 12z" glyph-name="multiply" horiz-adv-x="886" unicode="×"/><glyph d="M903 719q0 302 -33 438t-145 173q-51 18 -131 18t-130 -18q-112 -39 -146 -176q-33 -137 -33 -436t34 -444q18 -76 56 -114q68 -72 220 -72t218 72q90 95 90 559zM1016 763q0 -218 -9 -331q-21 -260 -114 -355t-297 -93q-123 0 -201 30l-78 -202q-8 -14 -26 -15h-60 q-18 0 -12 15l96 249q-84 70 -113 223q-30 153 -30 436t22 401t53 170q66 114 190 144q67 15 185 15t205 -43l76 199q4 14 19 14h67q14 0 10 -16l-96 -258q65 -74 89 -220t24 -363z" glyph-name="Oslash" horiz-adv-x="1187" unicode="Ø"/><glyph d="M901 1434h78q14 0 14 -15v-991q0 -131 -16 -211q-33 -166 -181 -210q-75 -21 -197 -21t-198 22q-147 41 -182 210q-16 81 -16 210v991q0 14 14 15h78q16 0 16 -15v-999q0 -141 26 -211q26 -71 85 -97t177 -26t176 27t85 97t27 210v999q0 15 14 15zM627 1536h-35 q-23 0 -43 16l-191 152q-14 15 4 25l68 28q23 8 35 -10l170 -184q18 -27 -8 -27z" glyph-name="Ugrave" horiz-adv-x="1196" unicode="Ù"/><glyph d="M901 1434h78q14 0 14 -15v-991q0 -131 -16 -211q-33 -166 -181 -210q-75 -21 -197 -21t-198 22q-147 41 -182 210q-16 81 -16 210v991q0 14 14 15h78q16 0 16 -15v-999q0 -141 26 -211q26 -71 85 -97t177 -26t176 27t85 97t27 210v999q0 15 14 15zM590 1532h-39 q-26 0 -8 20l188 187q18 25 51 8l47 -27q16 -10 2 -24l-188 -150q-20 -14 -53 -14z" glyph-name="Uacute" horiz-adv-x="1196" unicode="Ú"/><glyph d="M901 1434h78q14 0 14 -15v-991q0 -131 -16 -211q-33 -166 -181 -210q-75 -21 -197 -21t-198 22q-147 41 -182 210q-16 81 -16 210v991q0 14 14 15h78q16 0 16 -15v-999q0 -141 26 -211q26 -71 85 -97t177 -26t176 27t85 97t27 210v999q0 15 14 15zM393 1599l185 117 q10 6 22 0l182 -117q10 -4 6 -14l-22 -45q-4 -12 -18 -6l-148 90q-10 8 -22 0l-150 -90q-14 -8 -18 6l-21 45q-4 8 4 14z" glyph-name="Ucircumflex" horiz-adv-x="1196" unicode="Û"/><glyph d="M901 1434h78q14 0 14 -15v-991q0 -131 -16 -211q-33 -166 -181 -210q-75 -21 -197 -21t-198 22q-147 41 -182 210q-16 81 -16 210v991q0 14 14 15h78q16 0 16 -15v-999q0 -141 26 -211q26 -71 85 -97t177 -26t176 27t85 97t27 210v999q0 15 14 15zM670 1737h63 q16 0 17 -17v-168q0 -16 -17 -16h-63q-16 0 -17 16v168q1 17 17 17zM449 1737h63q16 0 16 -17v-168q0 -16 -16 -16h-63q-16 0 -17 16v168q1 17 17 17z" glyph-name="Udieresis" horiz-adv-x="1196" unicode="Ü"/><glyph d="M840 1434h80q14 0 14 -15v-393q0 -74 -47 -129l-238 -289q-27 -35 -26 -71v-523q0 -14 -15 -14h-78q-14 0 -14 14v523q0 41 -29 71l-254 289q-45 49 -45 129v393q0 14 15 15h80q14 0 14 -15v-391q0 -39 25 -65l229 -273q20 -23 37 2l215 271q25 35 24 69v387q1 15 13 15z M563 1532h-41q-26 0 -8 20l188 187q18 25 52 8l47 -27q18 -10 2 -24l-189 -150q-20 -14 -51 -14z" glyph-name="Yacute" horiz-adv-x="1124" unicode="Ý"/><glyph d="M319 496h199q147 0 205 64q57 65 57 208q0 144 -51 202t-172 58h-235q-12 0 -13 -12v-510q0 -10 10 -10zM215 1434h78q16 0 16 -15v-280q0 -10 8 -11h236q176 0 257 -80t81 -274q0 -195 -85 -287t-292 -92h-197q-8 0 -8 -8v-375q0 -12 -14 -12h-82q-12 0 -12 12v1407 q0 15 14 15z" glyph-name="Thorn" horiz-adv-x="964" unicode="Þ"/><glyph d="M162 14v1080q0 182 76 269t259 87t258 -72t74 -186q1 -80 -31 -136t-106 -102l-104 -65q-68 -34 -89 -78q-11 -23 -11 -65t21 -77q22 -34 87 -65l127 -61q82 -41 117 -68q73 -56 73 -210q-1 -153 -77 -217t-256 -64q-123 0 -195 18q-20 3 -24 12q-3 10 -3 19l4 45 q2 16 12 16t73 -8q64 -8 133 -8q133 0 182 44t49 136t-26 123q-25 31 -73 55t-55 27l-120 63q-76 39 -111 87t-35 124t25 113t96 84l100 59q63 41 89 77t26 104q0 180 -223 180q-136 0 -188 -64t-52 -203v-1073q0 -14 -16 -14h-70q-16 0 -16 14z" glyph-name="germandbls" horiz-adv-x="1009" unicode="ß"/><glyph d="M668 350v154q0 25 -23 24h-199q-125 0 -179 -48t-54 -177t46 -179t162 -50q115 0 181 74t66 202zM420 1047q133 0 205 -34q143 -68 143 -370v-629q0 -14 -14 -14h-43q-20 0 -23 18l-10 95q-2 2 -6 2q-4 1 -14 -13q-91 -118 -273 -118q-143 0 -207 76q-63 77 -63 245 t76 239q77 71 233 70h215q27 0 27 27q0 242 -103 288q-103 49 -327 4q-35 -7 -41 -7q-17 0 -17 18l-6 37q0 14 4 21t21 14q90 31 223 31zM287 1442h84q14 0 20 -17l107 -229q10 -25 -13 -25h-32q-20 0 -31 17l-146 237q-9 17 11 17z" glyph-name="agrave" horiz-adv-x="925" unicode="à"/><glyph d="M668 350v154q0 25 -23 24h-199q-125 0 -179 -48t-54 -177t46 -179t162 -50q115 0 181 74t66 202zM420 1047q133 0 205 -34q143 -68 143 -370v-629q0 -14 -14 -14h-43q-20 0 -23 18l-10 95q-2 2 -6 2q-4 1 -14 -13q-91 -118 -273 -118q-143 0 -207 76q-63 77 -63 245 t76 239q77 71 233 70h215q27 0 27 27q0 242 -103 288q-103 49 -327 4q-35 -7 -41 -7q-17 0 -17 18l-6 37q0 14 4 21t21 14q90 31 223 31zM532 1442h91q10 0 13 -6t-3 -13l-144 -237q-8 -14 -24 -15h-43q-25 0 -14 23l104 233q4 15 20 15z" glyph-name="aacute" horiz-adv-x="925" unicode="á"/><glyph d="M668 350v154q0 25 -23 24h-199q-125 0 -179 -48t-54 -177t46 -179t162 -50q115 0 181 74t66 202zM420 1047q133 0 205 -34q143 -68 143 -370v-629q0 -14 -14 -14h-43q-20 0 -23 18l-10 95q-2 2 -6 2q-4 1 -14 -13q-91 -118 -273 -118q-143 0 -207 76q-63 77 -63 245 t76 239q77 71 233 70h215q27 0 27 27q0 242 -103 288q-103 49 -327 4q-35 -7 -41 -7q-17 0 -17 18l-6 37q0 14 4 21t21 14q90 31 223 31zM264 1284l185 117q10 8 22 0l182 -117q10 -4 6 -12l-22 -47q-4 -12 -19 -6l-147 92q-10 6 -25 0l-147 -92q-14 -6 -18 6l-21 47 q-4 8 4 12z" glyph-name="acircumflex" horiz-adv-x="925" unicode="â"/><glyph d="M668 350v154q0 25 -23 24h-199q-125 0 -179 -48t-54 -177t46 -179t162 -50q115 0 181 74t66 202zM420 1047q133 0 205 -34q143 -68 143 -370v-629q0 -14 -14 -14h-43q-20 0 -23 18l-10 95q-2 2 -6 2q-4 1 -14 -13q-91 -118 -273 -118q-143 0 -207 76q-63 77 -63 245 t76 239q77 71 233 70h215q27 0 27 27q0 242 -103 288q-103 49 -327 4q-35 -7 -41 -7q-17 0 -17 18l-6 37q0 14 4 21t21 14q90 31 223 31zM221 1233q29 147 126 147q51 0 113 -41t86 -41t40 16t24 46q8 28 14 32t29 5q23 0 30 -4t5 -17q-29 -158 -133 -157q-45 0 -105 42 t-86 42q-26 1 -39 -13t-23 -40t-19 -31q-8 -4 -35 -5q-27 0 -27 19z" glyph-name="atilde" horiz-adv-x="925" unicode="ã"/><glyph d="M668 350v154q0 25 -23 24h-199q-125 0 -179 -48t-54 -177t46 -179t162 -50q115 0 181 74t66 202zM420 1047q133 0 205 -34q143 -68 143 -370v-629q0 -14 -14 -14h-43q-20 0 -23 18l-10 95q-2 2 -6 2q-4 1 -14 -13q-91 -118 -273 -118q-143 0 -207 76q-63 77 -63 245 t76 239q77 71 233 70h215q27 0 27 27q0 242 -103 288q-103 49 -327 4q-35 -7 -41 -7q-17 0 -17 18l-6 37q0 14 4 21t21 14q90 31 223 31zM539 1442h61q14 0 14 -17v-225q0 -16 -14 -16h-61q-16 0 -17 16v225q1 17 17 17zM330 1442h61q14 0 15 -17v-225q0 -16 -15 -16h-61 q-14 0 -15 16v225q1 17 15 17z" glyph-name="adieresis" horiz-adv-x="925" unicode="ä"/><glyph d="M668 350v154q0 25 -23 24h-199q-125 0 -179 -48t-54 -177t46 -179t162 -50q115 0 181 74t66 202zM420 1047q133 0 205 -34q143 -68 143 -370v-629q0 -14 -14 -14h-43q-20 0 -23 18l-10 95q-2 2 -6 2q-4 1 -14 -13q-91 -118 -273 -118q-143 0 -207 76q-63 77 -63 245 t76 239q77 71 233 70h215q27 0 27 27q0 242 -103 288q-103 49 -327 4q-35 -7 -41 -7q-17 0 -17 18l-6 37q0 14 4 21t21 14q90 31 223 31zM465 1358q-35 0 -50 -18t-15 -61q0 -42 14 -59q16 -18 51 -18t50 18t15 59q0 43 -15 61t-50 18zM465 1141q-129 0 -129 137t129 137 t129 -137t-129 -137z" glyph-name="aring" horiz-adv-x="925" unicode="å"/><glyph d="M666 346v150q0 14 -15 14h-192q-165 0 -199 -33t-41 -82q-6 -49 -6 -102q0 -129 43 -174t150 -45q260 0 260 272zM782 590h441q10 0 10 12q0 271 -90 326q-45 27 -129 26q-242 0 -244 -295v-57q0 -12 12 -12zM666 666q0 290 -273 288q-51 0 -130 -14t-83 -14 q-12 0 -14 20l-4 35q-4 27 26 37q80 29 207 29q248 0 316 -187q8 -16 16 -2q70 188 287 189q172 1 244 -93t71 -336v-55q0 -59 -59 -59h-490q-10 0 -10 -10v-113q0 -174 65 -239t203 -64q84 0 158 18t84 18t12 -18l6 -33q4 -27 -24 -38q-98 -39 -246 -39q-238 0 -311 178 q-4 10 -10 0q-90 -178 -312 -178q-149 0 -215 70t-66 240q0 168 59 234q58 66 222 66h254q16 0 17 16v54z" glyph-name="ae" horiz-adv-x="1429" unicode="æ"/><glyph d="M389 -254q-16 0 -12 18l55 222q-180 10 -249 131t-69 407t74 405q74 118 271 118q127 0 198 -21q17 -4 23 -11t4 -26l-4 -41q-2 -16 -9 -16t-76 10t-118 10q-152 0 -204 -92t-52 -343t54 -344t214 -93q43 0 109 7t68 7q12 0 14 -16l4 -39q4 -30 -25 -37q-45 -10 -124 -16 l-68 -219q-6 -20 -27 -21h-51z" glyph-name="ccedilla" horiz-adv-x="815" unicode="ç"/><glyph d="M227 567h465q6 0 6 8q0 242 -58 315q-32 40 -70 52t-104 12t-109 -13q-99 -29 -125 -168q-13 -75 -13 -195q0 -11 8 -11zM508 78q82 0 231 37q17 -1 19 -17l6 -35q4 -27 -25 -38q-90 -39 -220 -39q-129 0 -197 22q-148 47 -186 243q-19 103 -19 268q0 324 87 430 q46 57 107 77t158 21q178 -1 252 -101t74 -368v-37q0 -57 -60 -58h-508q-8 0 -8 -8v-20q0 -123 15 -198q16 -75 54 -114t88 -52t132 -13zM297 1442h84q14 0 20 -17l109 -229q8 -25 -14 -25h-31q-23 0 -33 17l-145 237q-10 17 10 17z" glyph-name="egrave" horiz-adv-x="894" unicode="è"/><glyph d="M227 567h465q6 0 6 8q0 243 -58 314q-32 39 -70 52t-104 13t-109 -13q-99 -29 -125 -169q-13 -76 -13 -194q0 -11 8 -11zM508 78q82 0 231 37q17 -1 19 -17l6 -35q4 -27 -25 -38q-90 -39 -220 -39q-129 0 -197 22q-148 47 -186 243q-19 103 -19 268q0 324 87 430 q46 57 107 77t158 21q178 -1 252 -101t74 -368v-37q0 -57 -60 -58h-508q-8 0 -8 -8v-20q0 -123 15 -198q16 -75 54 -114t88 -52t132 -13zM543 1442h90q23 0 12 -19l-145 -237q-8 -14 -25 -15h-43q-25 0 -12 23l102 233q5 15 21 15z" glyph-name="eacute" horiz-adv-x="894" unicode="é"/><glyph d="M227 567h465q6 0 6 8q0 243 -58 314q-32 39 -70 52t-104 13t-109 -13q-99 -29 -125 -169q-13 -76 -13 -194q0 -11 8 -11zM508 78q82 0 231 37q17 -1 19 -17l6 -35q4 -27 -25 -38q-90 -39 -220 -39q-129 0 -197 22q-148 47 -186 243q-19 103 -19 268q0 324 87 430 q46 57 107 77t158 21q178 -1 252 -101t74 -368v-37q0 -57 -60 -58h-508q-8 0 -8 -8v-20q0 -123 15 -198q16 -75 54 -114t88 -52t132 -13zM274 1284l185 117q12 8 22 0l183 -117q10 -4 6 -12l-23 -47q-4 -12 -18 -6l-148 92q-10 6 -22 0l-150 -92q-12 -6 -18 6l-21 47 q-4 8 4 12z" glyph-name="ecircumflex" horiz-adv-x="894" unicode="ê"/><glyph d="M227 567h465q6 0 6 8q0 242 -58 315q-32 40 -70 52t-104 12t-109 -13q-99 -29 -125 -168q-13 -75 -13 -195q0 -11 8 -11zM508 78q82 0 231 37q17 -1 19 -17l6 -35q4 -27 -25 -38q-90 -39 -220 -39q-129 0 -197 22q-148 47 -186 243q-19 103 -19 268q0 324 87 430 q46 57 107 77t158 21q178 -1 252 -101t74 -368v-37q0 -57 -60 -58h-508q-8 0 -8 -8v-20q0 -123 15 -198q16 -75 54 -114t88 -52t132 -13zM549 1442h61q16 0 17 -17v-225q0 -16 -17 -16h-61q-14 0 -14 16v225q0 17 14 17zM340 1442h61q16 0 17 -17v-225q0 -16 -17 -16h-61 q-14 0 -14 16v225q0 17 14 17z" glyph-name="edieresis" horiz-adv-x="894" unicode="ë"/><glyph d="M174 1032h70q16 0 16 -18v-998q0 -16 -16 -16h-72q-14 0 -14 16v998q0 18 16 18zM29 1442h86q14 0 20 -17l107 -229q10 -25 -13 -25h-32q-20 0 -31 17l-146 237q-9 17 9 17z" glyph-name="igrave" horiz-adv-x="417" unicode="ì"/><glyph d="M174 1032h70q16 0 16 -18v-998q0 -16 -16 -16h-72q-14 0 -14 16v998q0 18 16 18zM276 1442h91q10 0 13 -6t-3 -13l-144 -237q-8 -14 -24 -15h-43q-25 0 -14 23l104 233q4 15 20 15z" glyph-name="iacute" horiz-adv-x="417" unicode="í"/><glyph d="M174 1032h70q16 0 16 -18v-998q0 -16 -16 -16h-72q-14 0 -14 16v998q0 18 16 18zM8 1284l185 117q10 8 22 0l182 -117q10 -4 6 -12l-22 -47q-4 -12 -19 -6l-147 92q-12 6 -25 0l-147 -92q-14 -6 -18 6l-23 47q-2 8 6 12z" glyph-name="icircumflex" horiz-adv-x="417" unicode="î"/><glyph d="M174 1032h70q16 0 16 -18v-998q0 -16 -16 -16h-72q-14 0 -14 16v998q0 18 16 18zM283 1442h61q14 0 14 -17v-225q0 -16 -14 -16h-61q-16 0 -17 16v225q1 17 17 17zM74 1442h61q14 0 15 -17v-225q0 -16 -15 -16h-61q-16 0 -17 16v225q1 17 17 17z" glyph-name="idieresis" horiz-adv-x="417" unicode="ï"/><glyph d="M705 356v351q0 115 -50 170q-59 68 -190 67q-68 0 -110 -15q-97 -35 -124 -194q-14 -89 -14 -249q0 -316 98 -375q47 -29 140 -29q156 0 202 63q48 55 48 211zM803 883v-535q0 -195 -66 -270q-74 -92 -282 -92q-127 0 -198 44t-105 158t-35 298q0 184 18 288 q19 104 63 162q78 103 220 103q142 -1 194 -30t67 -47t19 -18t4 8q0 123 -71 244l-232 -61q-12 -2 -14 10l-4 41q-2 12 12 16l199 53q-63 82 -154 146q-25 16 0 31l31 22q27 16 53 -2q109 -84 170 -170l166 45q12 2 14 -10l5 -43q2 -12 -13 -17l-135 -34q74 -139 74 -340z " glyph-name="eth" horiz-adv-x="978" unicode="ð"/><glyph d="M158 14v670q0 205 71 284q72 79 277 79q204 0 276 -79t72 -284v-670q0 -14 -16 -14h-72q-14 0 -14 14v672q0 162 -54 214t-192 52t-192 -52t-54 -214v-672q0 -14 -16 -14h-72q-14 0 -14 14zM694 1395q22 0 28 -4q7 -4 5 -15q-29 -158 -133 -157q-44 0 -104 41 q-91 63 -126 28q-14 -12 -24 -38t-17 -32t-27 -6t-28 4t-6 17q25 147 124 147q52 0 114 -41t86 -41q49 0 67 76q7 14 13 18t28 3z" glyph-name="ntilde" horiz-adv-x="1009" unicode="ñ"/><glyph d="M471 952q-101 0 -153 -36t-76 -128t-23 -270q0 -178 24 -271q23 -93 75 -130t152 -37t153 37q51 37 74 130q24 93 24 271t-24 270t-74 128q-52 36 -152 36zM471 1047q207 0 281 -112t74 -417t-74 -420q-74 -114 -281 -114t-281 114t-73 420q0 305 73 417q74 112 281 112z M297 1440h84q14 0 20 -15l109 -231q8 -23 -14 -23h-31q-20 0 -31 15l-145 239q-10 15 8 15z" glyph-name="ograve" horiz-adv-x="940" unicode="ò"/><glyph d="M471 952q-101 0 -153 -36t-76 -128t-23 -270q0 -178 24 -271q23 -93 75 -130t152 -37t153 37q51 37 74 130q24 93 24 271t-24 270t-74 128q-52 36 -152 36zM471 1047q207 0 281 -112t74 -417t-74 -420q-74 -114 -281 -114t-281 114t-73 420q0 305 73 417q74 112 281 112z M543 1440h92q10 0 13 -6t-3 -13l-145 -237q-8 -12 -25 -13h-41q-27 0 -14 21l102 235q7 13 21 13z" glyph-name="oacute" horiz-adv-x="940" unicode="ó"/><glyph d="M471 952q-101 0 -153 -36t-76 -128t-23 -270q0 -178 24 -271q23 -93 75 -130t152 -37t153 37q51 37 74 130q24 93 24 271t-24 270t-74 128q-52 36 -152 36zM471 1047q207 0 281 -112t74 -417t-74 -420q-74 -114 -281 -114t-281 114t-73 420q0 305 73 417q74 112 281 112z M276 1284l183 117q12 6 22 0l185 -117q8 -6 4 -14l-23 -47q-2 -12 -16 -6l-150 92q-10 6 -22 0l-148 -92q-14 -6 -18 6l-23 47q-4 8 6 14z" glyph-name="ocircumflex" horiz-adv-x="940" unicode="ô"/><glyph d="M471 952q-101 0 -153 -36t-76 -128t-23 -270q0 -178 24 -271q23 -93 75 -130t152 -37t153 37q51 37 74 130q24 93 24 271t-24 270t-74 128q-52 36 -152 36zM471 1047q207 0 281 -112t74 -417t-74 -420q-74 -114 -281 -114t-281 114t-73 420q0 305 73 417q74 112 281 112z M666 1395q22 0 28 -4t4 -15q-29 -158 -133 -157q-45 0 -104 41q-59 40 -86 40t-40 -12t-23 -38t-18 -32t-28 -6t-27 4t-6 17q25 147 124 147q51 0 113 -41t87 -41t40 16t25 46q10 28 15 32q7 3 29 3z" glyph-name="otilde" horiz-adv-x="940" unicode="õ"/><glyph d="M471 952q-101 0 -153 -36t-76 -128t-23 -270q0 -178 24 -271q23 -93 75 -130t152 -37t153 37q51 37 74 130q24 93 24 271t-24 270t-74 128q-52 36 -152 36zM471 1047q207 0 281 -112t74 -417t-74 -420q-74 -114 -281 -114t-281 114t-73 420q0 305 73 417q74 112 281 112z M551 1440h59q16 0 17 -17v-223q0 -16 -17 -16h-59q-16 0 -16 16v223q0 17 16 17zM342 1440h59q16 0 17 -17v-223q0 -16 -17 -16h-59q-16 0 -16 16v223q0 17 16 17z" glyph-name="odieresis" horiz-adv-x="940" unicode="ö"/><glyph d="M528 285h62q16 0 16 -17v-252q0 -16 -16 -16h-62q-16 0 -16 16v252q0 17 16 17zM172 553h772q16 0 17 -14v-62q0 -14 -17 -14h-772q-14 0 -14 12v64q0 14 14 14zM528 1024h62q16 0 16 -16v-252q0 -16 -16 -17h-62q-16 0 -16 17v252q0 16 16 16z" glyph-name="divide" horiz-adv-x="1116" unicode="÷"/><glyph d="M715 518q0 180 -24 272t-74 128q-50 34 -149 34t-151 -34q-51 -35 -75 -127q-24 -93 -23 -273q0 -180 24 -273q25 -93 75 -129t148 -36t150 35q51 35 75 129t24 274zM631 1225h63q16 0 11 -15l-56 -196q98 -41 134 -154q36 -114 36 -306t-14 -287q-30 -204 -160 -256 q-67 -27 -149 -27t-125 10l-52 -180q-4 -14 -20 -15h-61q-14 0 -11 15l62 200q-98 41 -136 157t-38 381t69 380q70 115 271 115q51 0 106 -9l49 172q7 15 21 15z" glyph-name="oslash" horiz-adv-x="933" unicode="ø"/><glyph d="M733 1032h70q16 0 16 -18v-652q1 -219 -69 -299q-70 -79 -262 -79t-262 81t-68 297v652q0 18 16 18h68q18 0 18 -18v-668q0 -162 49 -214t180 -52t180 52q48 52 48 214v668q0 18 16 18zM307 1440h86q14 0 21 -15l106 -231q10 -25 -12 -25h-33q-20 0 -31 17l-145 239 q-10 15 8 15z" glyph-name="ugrave" horiz-adv-x="976" unicode="ù"/><glyph d="M733 1032h70q16 0 16 -18v-652q1 -219 -69 -299q-70 -79 -262 -79t-262 81t-68 297v652q0 18 16 18h68q18 0 18 -18v-668q0 -162 49 -214t180 -52t180 52q48 52 48 214v668q0 18 16 18zM555 1440h90q10 0 13 -6t-3 -13l-143 -237q-8 -14 -25 -15h-43q-25 0 -14 23 l105 235q4 13 20 13z" glyph-name="uacute" horiz-adv-x="976" unicode="ú"/><glyph d="M733 1032h70q16 0 16 -18v-652q1 -219 -69 -299q-70 -79 -262 -79t-262 81t-68 297v652q0 18 16 18h68q18 0 18 -18v-668q0 -162 49 -214t180 -52t180 52q48 52 48 214v668q0 18 16 18zM287 1284l182 117q12 6 25 0l182 -117q8 -6 6 -14l-23 -47q-4 -12 -18 -6l-147 92 q-12 6 -25 0l-147 -92q-14 -6 -19 6l-22 47q-2 8 6 14z" glyph-name="ucircumflex" horiz-adv-x="976" unicode="û"/><glyph d="M733 1032h70q16 0 16 -18v-652q1 -219 -69 -299q-70 -79 -262 -79t-262 81t-68 297v652q0 18 16 18h68q18 0 18 -18v-668q0 -162 49 -214t180 -52t180 52q48 52 48 214v668q0 18 16 18zM561 1440h60q16 0 16 -17v-223q0 -16 -16 -16h-60q-16 0 -16 16v223q0 17 16 17z M352 1440h62q14 0 14 -17v-223q0 -16 -14 -16h-62q-16 0 -16 16v223q0 17 16 17z" glyph-name="udieresis" horiz-adv-x="976" unicode="ü"/><glyph d="M748 1032h71q14 0 15 -16v-1020q0 -180 -69 -273q-69 -94 -276 -94q-150 0 -235 27q-29 8 -27 33l4 47q2 14 17 14q4 0 80 -12t156 -12t130 17q51 17 77 55t34 82t8 114v172q0 6 -6 2q-31 -32 -94 -58t-152 -26q-175 0 -243 78t-68 280v574q0 16 14 16h72q14 0 14 -16 v-567q0 -161 50 -215t171 -54q120 0 180 45t60 113v678q1 16 17 16zM573 1440h91q10 0 13 -6t-1 -13l-146 -237q-8 -12 -24 -13h-43q-25 0 -14 21l104 235q4 13 20 13z" glyph-name="yacute" horiz-adv-x="1001" unicode="ý"/><glyph d="M260 692v-450q0 -56 37 -92t78 -53t104 -17t99 8t70 35q90 73 91 407q0 334 -99 394q-48 29 -140 28q-139 0 -195 -75q-45 -58 -45 -185zM172 1434h74q12 0 12 -15v-463q0 -10 10 -6q44 51 100 74t162 23q106 -1 176 -45t102 -156t32 -321q0 -211 -36 -329t-107 -165 t-199 -47t-230 84q-10 6 -10 -9v-397q0 -14 -12 -14h-74q-14 0 -14 14v1757q0 15 14 15z" glyph-name="thorn" horiz-adv-x="956" unicode="þ"/><glyph d="M748 1032h71q14 0 15 -16v-1020q0 -180 -69 -273q-69 -94 -276 -94q-150 0 -235 27q-29 8 -27 33l4 47q2 14 17 14q4 0 80 -12t156 -12t130 17q51 17 77 55t34 82t8 114v172q0 6 -6 2q-31 -32 -94 -58t-152 -26q-175 0 -243 78t-68 280v574q0 16 14 16h72q16 0 16 -16 v-567q0 -161 50 -215t169 -54q120 0 180 45t60 115v676q1 16 17 16zM580 1440h61q14 0 14 -17v-223q0 -16 -14 -16h-61q-16 0 -17 16v223q1 17 17 17zM371 1440h61q14 0 14 -17v-223q0 -16 -14 -16h-61q-14 0 -15 16v223q1 17 15 17z" glyph-name="ydieresis" horiz-adv-x="1001" unicode="ÿ"/><glyph d="M807 1059q-1 293 -245 293q-114 0 -169 -48t-82 -186t-27 -408q0 -272 28 -404q26 -132 81 -177t143 -45q151 0 205 62q66 73 66 343v570zM846 162q-71 -178 -278 -178q-108 0 -170 22q-134 46 -180 205q-46 160 -46 502t46 505q46 162 181 209q63 23 156 23 q246 0 301 -170q16 84 76 119t203 35h280q14 0 15 -15v-71q0 -14 -15 -15h-244q-165 0 -209 -42t-44 -195v-291q0 -12 12 -12h430q14 0 14 -15v-69q0 -14 -14 -15h-430q-12 0 -12 -12v-344q0 -154 45 -196t208 -42h244q14 0 15 -14v-72q-1 -14 -15 -14h-287q-135 0 -198 36 t-84 126z" glyph-name="OE" horiz-adv-x="1572" unicode="Œ"/><glyph d="M472 952q-99 0 -151 -36t-77 -126t-25 -304q0 -216 51 -311q50 -95 172 -95t178 33q111 65 111 403t-106 404q-54 32 -153 32zM852 557h471q14 0 14 16q-2 211 -57 296t-191 85q-135 0 -193 -82t-58 -235v-64q0 -16 14 -16zM465 1047q129 1 206 -47t107 -154q4 -12 10 0 q37 102 110 151t196 50q182 0 260 -113t78 -365v-34q0 -59 -66 -60h-516q-14 0 -12 -14q-2 -205 62 -294t222 -89q72 0 154 12l82 12q18 0 20 -20l6 -33q2 -27 -20 -37q-90 -26 -238 -26t-222 50q-73 50 -109 146q-10 20 -17 -2q-66 -197 -327 -196q-186 0 -261 120 q-74 121 -74 420t77 411q76 112 272 112z" glyph-name="oe" horiz-adv-x="1531" unicode="œ"/><glyph d="M840 1434h80q14 0 14 -15v-393q0 -74 -47 -129l-238 -289q-27 -35 -26 -71v-523q0 -14 -15 -14h-78q-14 0 -14 14v523q0 41 -29 71l-254 289q-45 49 -45 129v393q0 14 15 15h80q14 0 14 -15v-391q0 -39 25 -65l229 -273q20 -23 37 2l215 271q25 35 24 69v387q1 15 13 15z M641 1737h66q14 0 14 -17v-168q0 -16 -14 -16h-66q-16 0 -16 16v168q0 17 16 17zM420 1737h65q14 0 15 -17v-168q0 -16 -15 -16h-65q-16 0 -17 16v168q1 17 17 17z" glyph-name="Ydieresis" horiz-adv-x="1124" unicode="Ÿ"/><glyph d="M127 1278l184 115q10 8 23 0l182 -115q10 -6 6 -14l-22 -47q-4 -12 -19 -7l-147 93q-12 6 -25 0l-147 -93q-14 -6 -19 7l-22 47q-2 8 6 14z" glyph-name="circumflex" horiz-adv-x="647" unicode="ˆ"/><glyph d="M538 1389q22 -1 28 -5t5 -14q-29 -158 -133 -158q-45 0 -104 41t-86 41t-40 -12q-14 -12 -24 -40t-17 -32t-27 -4t-28 4q-7 4 -6 15q24 147 124 147q52 0 114 -41q61 -41 86 -41q48 0 68 78q6 12 12 16t28 5z" glyph-name="tilde" horiz-adv-x="677" unicode="˜"/><glyph d="M137 604h647q16 0 17 -12v-64q0 -14 -17 -14h-647q-14 0 -14 14v64q0 12 14 12z" glyph-name="endash" horiz-adv-x="923" unicode="–"/><glyph d="M137 602h819q16 0 17 -14v-62q0 -14 -17 -14h-819q-14 0 -14 14v62q0 14 14 14z" glyph-name="emdash" horiz-adv-x="1095" unicode="—"/><glyph d="M190 1034h-67q-16 0 -17 17v172q0 59 18 104q17 45 66 123q10 16 31 12l27 -2q20 -4 16 -16q-57 -115 -57 -225v-168q-1 -17 -17 -17z" glyph-name="quoteleft" horiz-adv-x="364" unicode="‘"/><glyph d="M158 1434h67q16 0 17 -17v-172q0 -59 -18 -104t-68 -123q-10 -16 -31 -12l-25 2q-20 4 -16 16q57 115 57 225v168q1 17 17 17z" glyph-name="quoteright" horiz-adv-x="364" unicode="’"/><glyph d="M158 240h67q16 0 17 -19v-172q0 -57 -18 -102t-68 -125q-10 -14 -31 -12l-27 4q-20 2 -14 16q55 115 55 225v166q1 19 19 19z" glyph-name="quotesinglbase" horiz-adv-x="364" unicode="‚"/><glyph d="M311 1051v172q0 59 18 104q17 45 68 123q10 16 31 12l25 -2q20 -4 16 -16q-57 -115 -57 -225v-168q0 -16 -17 -17h-67q-17 1 -17 17zM125 1051v172q0 59 17 104t69 123q10 16 31 12l24 -2q23 -4 17 -16q-57 -115 -58 -225v-168q0 -16 -16 -17h-68q-16 1 -16 17z" glyph-name="quotedblleft" horiz-adv-x="552" unicode="“"/><glyph d="M354 1434h68q16 0 16 -17v-172q0 -59 -17 -104t-67 -123q-12 -16 -32 -12l-25 2q-20 4 -16 16q57 115 57 225v168q0 17 16 17zM168 1434h68q16 0 16 -17v-172q0 -59 -18 -104t-66 -123q-12 -16 -31 -12l-26 2q-20 4 -17 16q57 115 58 225v168q0 17 16 17z" glyph-name="quotedblright" horiz-adv-x="552" unicode="”"/><glyph d="M344 205h66q18 0 18 -17v-172q0 -59 -17 -104t-69 -123q-10 -16 -31 -12l-26 2q-20 4 -15 16q55 115 56 225v168q0 17 18 17zM158 205h67q16 0 17 -17v-172q0 -59 -18 -104t-68 -123q-10 -16 -31 -12l-27 2q-20 4 -14 16q55 115 55 225v168q1 17 19 17z" glyph-name="quotedblbase" horiz-adv-x="552" unicode="„"/><glyph d="M215 782h162q20 0 20 -20v-189q0 -18 -20 -18h-162q-20 0 -20 18v189q0 20 20 20z" glyph-name="bullet" horiz-adv-x="591" unicode="•"/><glyph d="M729 307h72q16 0 16 -16v-275q0 -16 -16 -16h-72q-14 0 -14 16v275q0 16 14 16zM449 307h69q16 0 17 -16v-275q0 -16 -17 -16h-69q-16 0 -17 16v275q1 16 17 16zM168 307h70q16 0 16 -16v-275q0 -16 -16 -16h-70q-16 0 -16 16v275q0 16 16 16z" glyph-name="ellipsis" horiz-adv-x="966" unicode="…"/><glyph d="M137 578l246 294q10 10 20 0l41 -41q10 -10 0 -18l-223 -268q-8 -10 0 -19l223 -268q8 -8 0 -18l-41 -41q-10 -8 -20 2l-246 291q-35 43 0 86z" glyph-name="guilsinglleft" horiz-adv-x="575" unicode="‹"/><glyph d="M133 831l41 41q10 10 19 0l245 -294q37 -43 0 -86l-245 -291q-8 -10 -19 -2l-41 41q-10 10 0 18l221 268q8 8 0 19l-223 268q-8 8 2 18z" glyph-name="guilsinglright" horiz-adv-x="575" unicode="›"/><glyph d="M86 512q-12 0 -12 12v51q0 14 12 15h152q-2 59 -2 128t2 126h-152q-12 0 -12 12v51q0 14 12 15h154q12 210 57 324t133 159t249 45t243 -18q27 -4 24 -31l-4 -53q0 -14 -14 -15q-2 0 -150 13t-218 -6q-138 -38 -178 -195q-22 -84 -28 -223h580q14 0 12 -15l-8 -49 q-4 -14 -18 -14h-570q-2 -57 -2 -126t2 -128h537q16 0 14 -15l-10 -49q0 -14 -19 -14h-518q6 -139 26 -222q37 -156 159 -191q55 -15 131 -15t134 4t95 9t43 5q14 0 14 -16l5 -39q2 -29 -27 -39q-78 -25 -262 -24q-233 0 -325 110q-91 111 -107 418h-154z" glyph-name="Euro" horiz-adv-x="1071" unicode="€"/><glyph d="M1368 1434h25q14 0 14 -15v-753q0 -14 -14 -15h-60q-14 0 -14 15v548q0 4 -2 6t-4 -3l-154 -240q-15 -17 -31 -17t-26 15l-152 242q-2 4 -5 3t-3 -8v-546q0 -14 -14 -15h-60q-14 0 -14 15v753q0 14 14 15h29q14 0 23 -11l206 -331q4 -10 13 0l207 331q8 11 22 11z M180 1436h508q14 0 14 -15v-55q0 -14 -14 -14h-207q-10 0 -10 -11v-673q0 -16 -14 -17h-58q-14 0 -16 17v675q0 10 -10 11h-193q-14 0 -14 14v53q0 15 14 15z" glyph-name="trademark" horiz-adv-x="1591" unicode="™"/><glyph d="M186 1044v91q0 175 58 239t198 64q138 0 242 -19q31 -6 29 -39l-4 -37q0 -14 -15 -14q-4 0 -83 7t-164 7q-84 1 -121 -39t-37 -163v-99q0 -10 14 -10h422q14 0 14 -16v-1000q0 -16 -16 -16h-70q-16 0 -16 16v926h-334q-14 0 -14 -14v-914q0 -14 -15 -14h-69q-18 0 -19 14 v916q-2 12 -12 12h-127q-16 0 -16 16v56q0 18 16 18h127q12 0 12 12z" glyph-name="uniFB01" horiz-adv-x="897" unicode="ﬁ"/><glyph d="M186 1044v101q0 171 76 241t248 70t255 -64t83 -225v-1153q0 -14 -12 -14h-78q-14 0 -15 14v1131q0 121 -51 169t-177 48t-176 -43t-50 -168v-109q0 -10 14 -10h260q16 0 17 -18v-56q0 -16 -17 -16h-260q-14 0 -14 -14v-914q0 -14 -15 -14h-69q-18 0 -19 14v916 q-2 12 -12 12h-127q-16 0 -16 16v56q0 18 16 18h127q12 0 12 12z" glyph-name="uniFB02" horiz-adv-x="1009" unicode="ﬂ"/></font>
</defs>
</svg>
